<?xml version="1.0" encoding="UTF-8" standalone="no"?>
<!-- Created with Inkscape (http://www.inkscape.org/) -->

<svg
   xmlns:dc="http://purl.org/dc/elements/1.1/"
   xmlns:cc="http://creativecommons.org/ns#"
   xmlns:rdf="http://www.w3.org/1999/02/22-rdf-syntax-ns#"
   xmlns:svg="http://www.w3.org/2000/svg"
   xmlns="http://www.w3.org/2000/svg"
   xmlns:sodipodi="http://sodipodi.sourceforge.net/DTD/sodipodi-0.dtd"
   xmlns:inkscape="http://www.inkscape.org/namespaces/inkscape"
   version="1.1"
   id="svg9793"
   width="33mm"
   height="33mm"
   viewBox="0 0 124.72441 124.72441"
   sodipodi:docname="qr_code.svg"
   inkscape:version="0.92.4 5da689c313, 2019-01-14">
  <metadata
     id="metadata9799">
    <rdf:RDF>
      <cc:Work
         rdf:about="">
        <dc:format>image/svg+xml</dc:format>
        <dc:type
           rdf:resource="http://purl.org/dc/dcmitype/StillImage" />
        <dc:title></dc:title>
      </cc:Work>
    </rdf:RDF>
  </metadata>
  <defs
     id="defs9797" />
  <sodipodi:namedview
     pagecolor="#ffffff"
     bordercolor="#666666"
     borderopacity="1"
     objecttolerance="10"
     gridtolerance="10"
     guidetolerance="10"
     inkscape:pageopacity="0"
     inkscape:pageshadow="2"
     inkscape:window-width="1920"
     inkscape:window-height="1054"
     id="namedview9795"
     showgrid="false"
     inkscape:zoom="2.8284271"
     inkscape:cx="109.05745"
     inkscape:cy="52.984012"
     inkscape:window-x="0"
     inkscape:window-y="85"
     inkscape:window-maximized="1"
     inkscape:current-layer="svg9793"
     units="mm"
     showguides="false" />
  <path
     style="fill:#000000;stroke-width:0.05153902"
     d="M 0.05078125 0 L 0.05078125 17.445312 L 0.05078125 34.892578 L 17.472656 34.892578 L 34.892578 34.892578 L 34.892578 17.445312 L 34.892578 0 L 17.472656 0 L 0.05078125 0 z M 44.890625 0 L 44.890625 2.5 L 44.890625 5 L 42.416016 5 L 39.943359 5 L 39.943359 7.4980469 L 39.943359 9.9980469 L 42.416016 9.9980469 L 44.890625 9.9980469 L 44.890625 12.498047 L 44.890625 14.998047 L 42.416016 14.998047 L 39.943359 14.998047 L 39.943359 17.472656 L 39.943359 19.945312 L 44.916016 19.945312 L 49.890625 19.945312 L 49.890625 17.472656 L 49.890625 14.998047 L 52.388672 14.998047 L 54.888672 14.998047 L 54.888672 17.472656 L 54.888672 19.945312 L 57.388672 19.945312 L 59.888672 19.945312 L 59.888672 14.972656 L 59.888672 9.9980469 L 64.861328 9.9980469 L 69.835938 9.9980469 L 69.835938 7.4980469 L 69.835938 5 L 62.361328 5 L 54.888672 5 L 54.888672 7.4980469 L 54.888672 9.9980469 L 52.388672 9.9980469 L 49.890625 9.9980469 L 49.890625 5 L 49.890625 0 L 47.390625 0 L 44.890625 0 z M 59.888672 19.945312 L 59.888672 22.445312 L 59.888672 24.945312 L 62.361328 24.945312 L 64.835938 24.945312 L 64.835938 22.445312 L 64.835938 19.945312 L 62.361328 19.945312 L 59.888672 19.945312 z M 64.835938 19.945312 L 67.335938 19.945312 L 69.835938 19.945312 L 69.835938 17.472656 L 69.835938 14.998047 L 67.335938 14.998047 L 64.835938 14.998047 L 64.835938 17.472656 L 64.835938 19.945312 z M 69.835938 19.945312 L 69.835938 27.445312 L 69.835938 34.943359 L 72.335938 34.943359 L 74.833984 34.943359 L 74.833984 32.443359 L 74.833984 29.943359 L 77.333984 29.943359 L 79.833984 29.943359 L 79.833984 34.943359 L 79.833984 39.943359 L 82.308594 39.943359 L 84.78125 39.943359 L 84.78125 29.943359 L 84.78125 19.945312 L 82.308594 19.945312 L 79.833984 19.945312 L 79.833984 22.445312 L 79.833984 24.945312 L 77.333984 24.945312 L 74.833984 24.945312 L 74.833984 22.445312 L 74.833984 19.945312 L 72.335938 19.945312 L 69.835938 19.945312 z M 74.833984 19.945312 L 77.333984 19.945312 L 79.833984 19.945312 L 79.833984 17.472656 L 79.833984 14.998047 L 77.333984 14.998047 L 74.833984 14.998047 L 74.833984 17.472656 L 74.833984 19.945312 z M 84.78125 39.943359 L 84.78125 42.416016 L 84.78125 44.890625 L 87.28125 44.890625 L 89.78125 44.890625 L 89.78125 42.416016 L 89.78125 39.943359 L 87.28125 39.943359 L 84.78125 39.943359 z M 54.888672 19.945312 L 52.388672 19.945312 L 49.890625 19.945312 L 49.890625 27.445312 L 49.890625 34.943359 L 52.388672 34.943359 L 54.888672 34.943359 L 54.888672 27.445312 L 54.888672 19.945312 z M 79.833984 0 L 79.833984 2.5 L 79.833984 5 L 82.308594 5 L 84.78125 5 L 84.78125 2.5 L 84.78125 0 L 82.308594 0 L 79.833984 0 z M 79.833984 5 L 77.333984 5 L 74.833984 5 L 74.833984 7.4980469 L 74.833984 9.9980469 L 77.333984 9.9980469 L 79.833984 9.9980469 L 79.833984 7.4980469 L 79.833984 5 z M 89.832031 0 L 89.832031 17.445312 L 89.832031 34.892578 L 107.25195 34.892578 L 124.67383 34.892578 L 124.67383 17.445312 L 124.67383 0 L 107.25195 0 L 89.832031 0 z M 5.0507812 5 L 17.498047 5 L 29.943359 5 L 29.943359 17.445312 L 29.943359 29.892578 L 17.498047 29.892578 L 5.0507812 29.892578 L 5.0507812 17.445312 L 5.0507812 5 z M 94.832031 5 L 107.2793 5 L 119.72461 5 L 119.72461 17.445312 L 119.72461 29.892578 L 107.2793 29.892578 L 94.832031 29.892578 L 94.832031 17.445312 L 94.832031 5 z M 9.9472656 9.9472656 L 9.9472656 17.445312 L 9.9472656 24.945312 L 17.445312 24.945312 L 24.945312 24.945312 L 24.945312 17.445312 L 24.945312 9.9472656 L 17.445312 9.9472656 L 9.9472656 9.9472656 z M 99.728516 9.9472656 L 99.728516 17.445312 L 99.728516 24.945312 L 107.22656 24.945312 L 114.72656 24.945312 L 114.72656 17.445312 L 114.72656 9.9472656 L 107.22656 9.9472656 L 99.728516 9.9472656 z M 39.943359 24.945312 L 39.943359 29.943359 L 39.943359 34.943359 L 42.416016 34.943359 L 44.890625 34.943359 L 44.890625 29.943359 L 44.890625 24.945312 L 42.416016 24.945312 L 39.943359 24.945312 z M 59.888672 29.943359 L 59.888672 37.417969 L 59.888672 44.890625 L 64.861328 44.890625 L 69.835938 44.890625 L 69.835938 42.416016 L 69.835938 39.943359 L 67.335938 39.943359 L 64.835938 39.943359 L 64.835938 34.943359 L 64.835938 29.943359 L 62.361328 29.943359 L 59.888672 29.943359 z M 69.835938 44.890625 L 69.835938 49.890625 L 69.835938 54.888672 L 72.335938 54.888672 L 74.833984 54.888672 L 74.833984 57.388672 L 74.833984 59.888672 L 72.335938 59.888672 L 69.835938 59.888672 L 69.835938 62.361328 L 69.835938 64.835938 L 74.833984 64.835938 L 79.833984 64.835938 L 79.833984 62.361328 L 79.833984 59.888672 L 82.308594 59.888672 L 84.78125 59.888672 L 84.78125 62.361328 L 84.78125 64.835938 L 89.78125 64.835938 L 94.779297 64.835938 L 94.779297 62.361328 L 94.779297 59.888672 L 97.279297 59.888672 L 99.779297 59.888672 L 99.779297 62.361328 L 99.779297 64.835938 L 102.2793 64.835938 L 104.7793 64.835938 L 104.7793 59.863281 L 104.7793 54.888672 L 107.25195 54.888672 L 109.72656 54.888672 L 109.72656 52.388672 L 109.72656 49.890625 L 104.75391 49.890625 L 99.779297 49.890625 L 99.779297 52.388672 L 99.779297 54.888672 L 97.279297 54.888672 L 94.779297 54.888672 L 94.779297 52.388672 L 94.779297 49.890625 L 84.806641 49.890625 L 74.833984 49.890625 L 74.833984 47.390625 L 74.833984 44.890625 L 72.335938 44.890625 L 69.835938 44.890625 z M 94.779297 49.890625 L 97.279297 49.890625 L 99.779297 49.890625 L 99.779297 44.916016 L 99.779297 39.943359 L 97.279297 39.943359 L 94.779297 39.943359 L 94.779297 44.916016 L 94.779297 49.890625 z M 104.7793 64.835938 L 104.7793 69.835938 L 104.7793 74.833984 L 99.779297 74.833984 L 94.779297 74.833984 L 94.779297 72.335938 L 94.779297 69.835938 L 92.28125 69.835938 L 89.78125 69.835938 L 89.78125 72.335938 L 89.78125 74.833984 L 87.28125 74.833984 L 84.78125 74.833984 L 84.78125 69.835938 L 84.78125 64.835938 L 82.308594 64.835938 L 79.833984 64.835938 L 79.833984 67.335938 L 79.833984 69.835938 L 72.335938 69.835938 L 64.835938 69.835938 L 64.835938 72.335938 L 64.835938 74.833984 L 69.835938 74.833984 L 74.833984 74.833984 L 74.833984 77.333984 L 74.833984 79.833984 L 77.333984 79.833984 L 79.833984 79.833984 L 79.833984 82.308594 L 79.833984 84.78125 L 77.333984 84.78125 L 74.833984 84.78125 L 74.833984 82.308594 L 74.833984 79.833984 L 69.835938 79.833984 L 64.835938 79.833984 L 64.835938 77.333984 L 64.835938 74.833984 L 62.361328 74.833984 L 59.888672 74.833984 L 59.888672 79.808594 L 59.888672 84.78125 L 62.361328 84.78125 L 64.835938 84.78125 L 64.835938 87.28125 L 64.835938 89.78125 L 59.863281 89.78125 L 54.888672 89.78125 L 54.888672 92.28125 L 54.888672 94.779297 L 52.388672 94.779297 L 49.890625 94.779297 L 49.890625 97.279297 L 49.890625 99.779297 L 52.388672 99.779297 L 54.888672 99.779297 L 54.888672 102.2793 L 54.888672 104.7793 L 57.388672 104.7793 L 59.888672 104.7793 L 59.888672 99.779297 L 59.888672 94.779297 L 64.861328 94.779297 L 69.835938 94.779297 L 69.835938 92.28125 L 69.835938 89.78125 L 74.833984 89.78125 L 79.833984 89.78125 L 79.833984 94.779297 L 79.833984 99.779297 L 77.333984 99.779297 L 74.833984 99.779297 L 74.833984 104.75391 L 74.833984 109.72656 L 77.333984 109.72656 L 79.833984 109.72656 L 79.833984 112.22656 L 79.833984 114.72656 L 77.333984 114.72656 L 74.833984 114.72656 L 74.833984 117.22461 L 74.833984 119.72461 L 72.335938 119.72461 L 69.835938 119.72461 L 69.835938 122.22461 L 69.835938 124.72461 L 74.833984 124.72461 L 79.833984 124.72461 L 79.833984 122.22461 L 79.833984 119.72461 L 84.806641 119.72461 L 89.78125 119.72461 L 89.78125 122.22461 L 89.78125 124.72461 L 107.25195 124.72461 L 124.72461 124.72461 L 124.72461 112.25195 L 124.72461 99.779297 L 117.22461 99.779297 L 109.72656 99.779297 L 109.72656 97.279297 L 109.72656 94.779297 L 117.22461 94.779297 L 124.72461 94.779297 L 124.72461 92.28125 L 124.72461 89.78125 L 119.72461 89.78125 L 114.72656 89.78125 L 114.72656 84.806641 L 114.72656 79.833984 L 112.22656 79.833984 L 109.72656 79.833984 L 109.72656 82.308594 L 109.72656 84.78125 L 107.25195 84.78125 L 104.7793 84.78125 L 104.7793 82.308594 L 104.7793 79.833984 L 107.25195 79.833984 L 109.72656 79.833984 L 109.72656 72.335938 L 109.72656 64.835938 L 107.25195 64.835938 L 104.7793 64.835938 z M 109.72656 64.835938 L 112.22656 64.835938 L 114.72656 64.835938 L 114.72656 69.835938 L 114.72656 74.833984 L 117.22461 74.833984 L 119.72461 74.833984 L 119.72461 77.333984 L 119.72461 79.833984 L 122.22461 79.833984 L 124.72461 79.833984 L 124.72461 74.833984 L 124.72461 69.835938 L 122.22461 69.835938 L 119.72461 69.835938 L 119.72461 67.335938 L 119.72461 64.835938 L 122.22461 64.835938 L 124.72461 64.835938 L 124.72461 57.363281 L 124.72461 49.890625 L 122.22461 49.890625 L 119.72461 49.890625 L 119.72461 44.916016 L 119.72461 39.943359 L 117.22461 39.943359 L 114.72656 39.943359 L 114.72656 47.416016 L 114.72656 54.888672 L 117.22461 54.888672 L 119.72461 54.888672 L 119.72461 57.388672 L 119.72461 59.888672 L 114.72656 59.888672 L 109.72656 59.888672 L 109.72656 62.361328 L 109.72656 64.835938 z M 69.835938 119.72461 L 69.835938 117.22461 L 69.835938 114.72656 L 72.335938 114.72656 L 74.833984 114.72656 L 74.833984 112.22656 L 74.833984 109.72656 L 72.335938 109.72656 L 69.835938 109.72656 L 69.835938 107.25195 L 69.835938 104.7793 L 64.861328 104.7793 L 59.888672 104.7793 L 59.888672 107.25195 L 59.888672 109.72656 L 62.361328 109.72656 L 64.835938 109.72656 L 64.835938 112.22656 L 64.835938 114.72656 L 62.361328 114.72656 L 59.888672 114.72656 L 59.888672 119.72461 L 59.888672 124.72461 L 62.361328 124.72461 L 64.835938 124.72461 L 64.835938 122.22461 L 64.835938 119.72461 L 67.335938 119.72461 L 69.835938 119.72461 z M 49.890625 99.779297 L 44.916016 99.779297 L 39.943359 99.779297 L 39.943359 112.25195 L 39.943359 124.72461 L 42.416016 124.72461 L 44.890625 124.72461 L 44.890625 117.22461 L 44.890625 109.72656 L 47.390625 109.72656 L 49.890625 109.72656 L 49.890625 104.75391 L 49.890625 99.779297 z M 49.890625 94.779297 L 49.890625 92.28125 L 49.890625 89.78125 L 52.388672 89.78125 L 54.888672 89.78125 L 54.888672 84.806641 L 54.888672 79.833984 L 52.388672 79.833984 L 49.890625 79.833984 L 49.890625 82.308594 L 49.890625 84.78125 L 47.390625 84.78125 L 44.890625 84.78125 L 44.890625 82.308594 L 44.890625 79.833984 L 42.416016 79.833984 L 39.943359 79.833984 L 39.943359 77.333984 L 39.943359 74.833984 L 37.443359 74.833984 L 34.943359 74.833984 L 34.943359 77.333984 L 34.943359 79.833984 L 32.443359 79.833984 L 29.943359 79.833984 L 29.943359 82.308594 L 29.943359 84.78125 L 34.943359 84.78125 L 39.943359 84.78125 L 39.943359 89.78125 L 39.943359 94.779297 L 44.916016 94.779297 L 49.890625 94.779297 z M 34.943359 74.833984 L 34.943359 72.335938 L 34.943359 69.835938 L 32.443359 69.835938 L 29.943359 69.835938 L 29.943359 67.335938 L 29.943359 64.835938 L 32.443359 64.835938 L 34.943359 64.835938 L 34.943359 62.361328 L 34.943359 59.888672 L 27.445312 59.888672 L 19.945312 59.888672 L 19.945312 57.388672 L 19.945312 54.888672 L 12.472656 54.888672 L 5 54.888672 L 5 52.388672 L 5 49.890625 L 2.5 49.890625 L 0 49.890625 L 0 54.888672 L 0 59.888672 L 5 59.888672 L 9.9980469 59.888672 L 9.9980469 62.361328 L 9.9980469 64.835938 L 5 64.835938 L 0 64.835938 L 0 74.808594 L 0 84.78125 L 2.5 84.78125 L 5 84.78125 L 5 77.308594 L 5 69.835938 L 7.4980469 69.835938 L 9.9980469 69.835938 L 9.9980469 77.308594 L 9.9980469 84.78125 L 12.498047 84.78125 L 14.998047 84.78125 L 14.998047 74.808594 L 14.998047 64.835938 L 17.472656 64.835938 L 19.945312 64.835938 L 19.945312 69.835938 L 19.945312 74.833984 L 27.445312 74.833984 L 34.943359 74.833984 z M 19.945312 54.888672 L 22.445312 54.888672 L 24.945312 54.888672 L 24.945312 52.388672 L 24.945312 49.890625 L 27.445312 49.890625 L 29.943359 49.890625 L 29.943359 47.390625 L 29.943359 44.890625 L 27.445312 44.890625 L 24.945312 44.890625 L 24.945312 42.416016 L 24.945312 39.943359 L 12.472656 39.943359 L 0 39.943359 L 0 42.416016 L 0 44.890625 L 7.4980469 44.890625 L 14.998047 44.890625 L 14.998047 47.390625 L 14.998047 49.890625 L 17.472656 49.890625 L 19.945312 49.890625 L 19.945312 52.388672 L 19.945312 54.888672 z M 29.943359 44.890625 L 32.443359 44.890625 L 34.943359 44.890625 L 34.943359 47.390625 L 34.943359 49.890625 L 32.443359 49.890625 L 29.943359 49.890625 L 29.943359 52.388672 L 29.943359 54.888672 L 34.943359 54.888672 L 39.943359 54.888672 L 39.943359 62.361328 L 39.943359 69.835938 L 42.416016 69.835938 L 44.890625 69.835938 L 44.890625 67.335938 L 44.890625 64.835938 L 47.390625 64.835938 L 49.890625 64.835938 L 49.890625 62.361328 L 49.890625 59.888672 L 52.388672 59.888672 L 54.888672 59.888672 L 54.888672 62.361328 L 54.888672 64.835938 L 57.388672 64.835938 L 59.888672 64.835938 L 59.888672 59.863281 L 59.888672 54.888672 L 62.361328 54.888672 L 64.835938 54.888672 L 64.835938 52.388672 L 64.835938 49.890625 L 59.863281 49.890625 L 54.888672 49.890625 L 54.888672 52.388672 L 54.888672 54.888672 L 52.388672 54.888672 L 49.890625 54.888672 L 49.890625 49.890625 L 49.890625 44.890625 L 52.388672 44.890625 L 54.888672 44.890625 L 54.888672 42.416016 L 54.888672 39.943359 L 42.416016 39.943359 L 29.943359 39.943359 L 29.943359 42.416016 L 29.943359 44.890625 z M 59.888672 64.835938 L 59.888672 67.335938 L 59.888672 69.835938 L 62.361328 69.835938 L 64.835938 69.835938 L 64.835938 67.335938 L 64.835938 64.835938 L 62.361328 64.835938 L 59.888672 64.835938 z M 54.888672 64.835938 L 52.388672 64.835938 L 49.890625 64.835938 L 49.890625 67.335938 L 49.890625 69.835938 L 47.390625 69.835938 L 44.890625 69.835938 L 44.890625 72.335938 L 44.890625 74.833984 L 49.890625 74.833984 L 54.888672 74.833984 L 54.888672 69.835938 L 54.888672 64.835938 z M 104.7793 39.943359 L 104.7793 42.416016 L 104.7793 44.890625 L 107.25195 44.890625 L 109.72656 44.890625 L 109.72656 42.416016 L 109.72656 39.943359 L 107.25195 39.943359 L 104.7793 39.943359 z M 39.943359 44.890625 L 42.416016 44.890625 L 44.890625 44.890625 L 44.890625 47.390625 L 44.890625 49.890625 L 42.416016 49.890625 L 39.943359 49.890625 L 39.943359 47.390625 L 39.943359 44.890625 z M 19.945312 79.833984 L 19.945312 82.308594 L 19.945312 84.78125 L 22.445312 84.78125 L 24.945312 84.78125 L 24.945312 82.308594 L 24.945312 79.833984 L 22.445312 79.833984 L 19.945312 79.833984 z M 84.78125 84.78125 L 92.28125 84.78125 L 99.779297 84.78125 L 99.779297 92.28125 L 99.779297 99.779297 L 92.28125 99.779297 L 84.78125 99.779297 L 84.78125 92.28125 L 84.78125 84.78125 z M 0.05078125 89.78125 L 0.05078125 107.22656 L 0.05078125 124.67383 L 17.472656 124.67383 L 34.892578 124.67383 L 34.892578 107.22656 L 34.892578 89.78125 L 17.472656 89.78125 L 0.05078125 89.78125 z M 89.78125 89.78125 L 89.78125 92.28125 L 89.78125 94.779297 L 92.28125 94.779297 L 94.779297 94.779297 L 94.779297 92.28125 L 94.779297 89.78125 L 92.28125 89.78125 L 89.78125 89.78125 z M 5.0507812 94.779297 L 17.498047 94.779297 L 29.943359 94.779297 L 29.943359 107.22656 L 29.943359 119.67383 L 17.498047 119.67383 L 5.0507812 119.67383 L 5.0507812 107.22656 L 5.0507812 94.779297 z M 9.9472656 99.728516 L 9.9472656 107.22656 L 9.9472656 114.72656 L 17.445312 114.72656 L 24.945312 114.72656 L 24.945312 107.22656 L 24.945312 99.728516 L 17.445312 99.728516 L 9.9472656 99.728516 z M 94.779297 104.7793 L 97.279297 104.7793 L 99.779297 104.7793 L 99.779297 107.25195 L 99.779297 109.72656 L 102.2793 109.72656 L 104.7793 109.72656 L 104.7793 107.25195 L 104.7793 104.7793 L 107.25195 104.7793 L 109.72656 104.7793 L 109.72656 109.75195 L 109.72656 114.72656 L 112.22656 114.72656 L 114.72656 114.72656 L 114.72656 112.22656 L 114.72656 109.72656 L 117.22461 109.72656 L 119.72461 109.72656 L 119.72461 114.72656 L 119.72461 119.72461 L 114.72656 119.72461 L 109.72656 119.72461 L 109.72656 117.22461 L 109.72656 114.72656 L 104.75391 114.72656 L 99.779297 114.72656 L 99.779297 112.22656 L 99.779297 109.72656 L 97.279297 109.72656 L 94.779297 109.72656 L 94.779297 112.22656 L 94.779297 114.72656 L 89.78125 114.72656 L 84.78125 114.72656 L 84.78125 112.22656 L 84.78125 109.72656 L 89.78125 109.72656 L 94.779297 109.72656 L 94.779297 107.25195 L 94.779297 104.7793 z M 49.890625 114.72656 L 49.890625 119.72461 L 49.890625 124.72461 L 52.388672 124.72461 L 54.888672 124.72461 L 54.888672 119.72461 L 54.888672 114.72656 L 52.388672 114.72656 L 49.890625 114.72656 z "
     id="path9803" />
</svg>
