<?xml version="1.0" encoding="UTF-8" standalone="no"?>
<svg
   xmlns:dc="http://purl.org/dc/elements/1.1/"
   xmlns:cc="http://creativecommons.org/ns#"
   xmlns:rdf="http://www.w3.org/1999/02/22-rdf-syntax-ns#"
   xmlns:svg="http://www.w3.org/2000/svg"
   xmlns="http://www.w3.org/2000/svg"
   viewBox="0 0 124.72441 124.72441"
   height="33mm"
   width="33mm"
   id="svg9793"
   version="1.1">
  <metadata
     id="metadata9799">
    <rdf:RDF>
      <cc:Work
         rdf:about="">
        <dc:format>image/svg+xml</dc:format>
        <dc:type
           rdf:resource="http://purl.org/dc/dcmitype/StillImage" />
        <dc:title></dc:title>
      </cc:Work>
    </rdf:RDF>
  </metadata>
  <defs
     id="defs9797" />
  <path
     id="path9803"
     d="M 39.942743,112.25198 V 99.779531 h 4.973512 4.973522 v -2.49964 -2.49964 h -4.973522 -4.973512 v -4.999302 -4.99928 h -4.999281 -4.99928 v -2.473863 -2.473873 h 2.49964 2.49964 v -2.49964 -2.49964 h -7.498929 -7.498938 v -4.999298 -4.99929 H 17.47174 14.997859 v 9.972802 9.972802 h -2.49964 -2.4996402 v -7.473162 -7.473152 h -2.49964 -2.4996401 v 7.473152 7.473162 H 2.4996587 2.5590557e-7 V 74.808867 64.836065 H 4.9992987 9.9985788 V 62.362211 59.888329 H 4.9992987 2.5590557e-7 v -4.99928 -4.999298 H 2.4996587 h 2.49964 v 2.49964 2.499658 h 7.4731613 7.473135 v -2.499658 -2.49964 H 17.47174 14.997859 v -2.49964 -2.49964 H 7.4989388 2.5590557e-7 V 42.416598 39.942735 H 12.47246 24.944893 v 2.473863 2.473873 h 2.49964 2.499649 v -2.473873 -2.473863 h 12.472433 12.472442 v 2.473863 2.473873 h -2.49964 -2.49964 v 4.99928 4.999298 h 2.49964 2.49964 v -2.499658 -2.49964 h 4.973522 4.973513 v 2.49964 2.499658 h -2.473873 -2.473882 v 4.973504 4.973512 h 2.473882 2.473873 v 2.49965 2.49964 h 7.49892 7.498929 v -2.49964 -2.49965 h -4.999289 -4.99928 v -2.473854 -2.473882 h 2.49964 2.49964 v -2.49964 -2.49964 h -2.49964 -2.49964 v -4.999298 -4.99928 h -4.973513 -4.973522 v -7.473162 -7.473153 h 2.473882 2.473873 v 4.999299 4.99928 h 2.49964 2.49964 v 2.473863 2.473873 h 2.49964 2.49964 v 2.49964 2.49964 h 9.972802 9.972801 v -4.973494 -4.973522 h 2.49964 2.49964 v 4.973522 4.973494 h 4.973515 4.97352 v 2.49964 2.499658 h -2.47387 -2.47388 v 4.973504 4.973512 h 2.47388 2.47387 v -2.473854 -2.473882 h 4.99928 4.99928 v -2.49964 -2.49964 h -2.49964 -2.49964 v -7.473152 -7.473162 h 2.49964 2.49964 v 4.973522 4.973494 h 2.49964 2.49964 v 7.473162 7.473152 h -2.49964 -2.49964 v 2.49965 2.49964 h 2.49964 2.49964 v 4.999298 4.99928 h -2.49964 -2.49964 v -2.49964 -2.49964 h -2.49964 -2.49964 v -4.999298 -4.99929 h -2.49964 -2.49964 v 7.498939 7.498929 h 2.49964 2.49964 v 4.973513 4.973503 h 4.99928 4.99928 v 2.499662 2.49964 h -7.49892 -7.49892 v 2.49964 2.49964 h 7.49892 7.49892 v 12.472449 12.47244 H 107.2527 89.780975 v -2.49964 -2.49965 h -4.973521 -4.973513 v 2.49965 2.49964 h -4.999289 -4.99928 v -2.49964 -2.49965 h -2.49964 -2.49964 v 2.49965 2.49964 h -2.473873 -2.473882 v -4.99929 -4.99928 h 2.473882 2.473873 v -2.49964 -2.49964 h -2.473873 -2.473882 v -2.47387 -2.47388 h -2.49964 -2.49964 v -2.49964 -2.499649 h -2.49964 -2.49964 v 4.973529 4.97351 h -2.49964 -2.49964 v 7.49892 7.49893 h -2.473882 -2.473872 z m 34.891909,4.97351 v -2.49964 h 2.499649 2.49964 v -2.49964 -2.49964 h -2.49964 -2.499649 v -4.97351 -4.973529 h 2.499649 2.49964 v -4.99928 -4.999302 h -4.999289 -4.99928 v 2.499662 2.49964 h -4.973513 -4.973522 v 4.99928 4.999289 h 4.973522 4.973513 v 2.47388 2.47387 h 2.49964 2.49964 v 2.49964 2.49964 h -2.49964 -2.49964 v 2.49964 2.49964 h 2.49964 2.49964 z m 44.890478,-2.49964 v -4.99928 h -2.49964 -2.49964 v 2.49964 2.49964 h -2.49964 -2.49964 v -4.97351 -4.97352 h -2.47387 -2.47388 v 2.47388 2.47387 h -2.49964 -2.499645 v -2.47387 -2.47388 h -2.49964 -2.49964 v 2.47388 2.47387 h -4.99928 -4.999289 v 2.49964 2.49964 h 4.999289 4.99928 v -2.49964 -2.49964 h 2.49964 2.49964 v 2.49964 2.49964 h 4.973515 4.97352 v 2.49964 2.49964 h 4.99928 4.99928 z M 99.779535,92.280611 v -7.498942 h -7.49892 -7.498929 v 7.498942 7.49892 h 7.498929 7.49892 z m -9.99856,0 v -2.499662 h 2.49964 2.49964 v 2.499662 2.49964 h -2.49964 -2.49964 z m -34.891918,0 v -2.499662 h 4.973522 4.973513 v -2.49964 -2.49964 h -2.473873 -2.473882 v -4.973522 -4.973494 h 2.473882 2.473873 v 2.49964 2.49964 h 4.99928 4.99928 v 2.473873 2.473863 h 2.499649 2.49964 v -2.473863 -2.473873 h -2.49964 -2.499649 v -2.49964 -2.49964 h -4.99928 -4.99928 v -2.499649 -2.499649 h -2.473873 -2.473882 v -2.49964 -2.49965 h -2.49964 -2.49964 v -2.473854 -2.473882 h -2.49964 -2.49964 v 2.473882 2.473854 h -2.49964 -2.49964 v 2.49965 2.49964 h -2.473882 -2.473872 v -7.473144 -7.473162 h -4.999281 -4.99928 v -2.499658 -2.49964 h 2.49964 2.49964 v -2.49964 -2.49964 h -2.49964 -2.49964 v 2.49964 2.49964 h -2.499649 -2.49964 v 2.49964 2.499658 h -2.49964 -2.499658 v 2.49964 2.49964 h 7.498938 7.498929 v 2.473882 2.473854 h -2.49964 -2.49964 v 2.49965 2.49964 h 2.49964 2.49964 v 2.499649 2.499649 h 2.499641 2.49964 v 2.49964 2.49964 h 2.473872 2.473882 v 2.473873 2.473863 h 2.49964 2.49964 v -2.473863 -2.473873 h 2.49964 2.49964 v 4.973513 4.973503 h -2.49964 -2.49964 v 2.499662 2.49964 h 2.49964 2.49964 z m -9.99856,-19.945607 v -2.499649 h 2.49964 2.49964 v -2.49964 -2.49965 h 2.49964 2.49964 v 4.99929 4.999298 h -4.99928 -4.99928 z m 64.836073,9.972802 v -2.473873 h -2.47387 -2.47388 v 2.473873 2.473863 h 2.47388 2.47387 z M 89.780975,72.335004 v -2.499649 h 2.49964 2.49964 v 2.499649 2.499649 h 4.99928 4.999285 v -4.999298 -4.99929 h -2.49964 -2.499645 v -2.473854 -2.473882 h -2.49964 -2.49964 v 2.473882 2.473854 h -4.99928 -4.999289 v -2.473854 -2.473882 h -2.473872 -2.473873 v 2.473882 2.473854 h 2.473873 2.473872 v 4.99929 4.999298 h 2.49964 2.499649 z m 9.99856,-19.945613 v -2.49964 h -2.49964 -2.49964 v 2.49964 2.499658 h 2.49964 2.49964 z m -54.889038,-4.99928 v -2.49964 h -2.473882 -2.473872 v 2.49964 2.49964 h 2.473872 2.473882 z m 4.99928,72.335019 v -4.99928 h 2.49964 2.49964 v 4.99928 4.99929 h -2.49964 -2.49964 z M 0.05154442,107.22693 V 89.780949 H 17.47174 34.891918 v 17.445981 17.44594 H 17.47174 0.05154442 Z m 29.89263758,0 V 94.780251 H 17.497499 5.0508246 v 12.446679 12.44666 H 17.497499 29.944182 Z m -19.9971474,0 v -7.498943 h 7.4989204 7.498938 v 7.498943 7.49892 H 17.445955 9.9470346 Z M 19.945595,82.307806 v -2.473873 h 2.499658 2.49964 v 2.473873 2.473863 h -2.49964 -2.499658 z M 84.781686,42.416598 v -2.473863 h -2.473872 -2.473873 v -4.99928 -4.999299 h -2.49964 -2.499649 v 2.49964 2.499659 h -2.49964 -2.49964 v -7.498939 -7.498929 h -2.49964 -2.49964 v 2.499649 2.49964 h -2.473873 -2.473882 v -2.49964 -2.499649 h -2.49964 -2.49964 v 7.498929 7.498939 h -2.49964 -2.49964 v -7.498939 -7.498929 h -4.973522 -4.973512 v -2.473854 -2.473882 h 2.473872 2.473882 v -2.49964 -2.4996403 h -2.473882 -2.473872 v -2.49964 -2.4996584 h 2.473872 2.473882 V 2.4996322 -8.2137915e-6 h 2.49964 2.49964 V 4.9992723 9.9985707 h 2.49964 2.49964 v -2.49964 -2.4996584 h 7.473162 7.473153 v 2.4996584 2.49964 h -4.973513 -4.973522 v 4.9735033 4.973513 h 2.473882 2.473873 v -2.473854 -2.473882 h 2.49964 2.49964 v 2.473882 2.473854 h 2.49964 2.49964 v -2.473854 -2.473882 h 2.499649 2.49964 v 2.473882 2.473854 h 2.473873 2.473872 v 9.998569 9.998579 h 2.49964 2.499649 v 2.473863 2.473873 h -2.499649 -2.49964 z M 79.833941,22.445236 v -2.499649 h -2.49964 -2.499649 v 2.499649 2.49964 h 2.499649 2.49964 z M 54.889057,17.471733 v -2.473882 h -2.49964 -2.49964 v 2.473882 2.473854 h 2.49964 2.49964 z m 49.889763,24.944865 v -2.473863 h 2.47388 2.47387 v 2.473863 2.473873 h -2.47387 -2.47388 z M 39.942743,29.944156 v -4.99928 h 2.473872 2.473882 v 4.99928 4.999299 H 42.416615 39.942743 Z M 0.05154442,17.445947 V -8.2137915e-6 H 17.47174 34.891918 V 17.445947 34.89191 H 17.47174 0.05154442 Z m 29.89263758,0 V 4.9992723 H 17.497499 5.0508246 V 17.445947 29.892621 H 17.497499 29.944182 Z m -19.9971474,0 V 9.9470265 h 7.4989204 7.498938 v 7.4989205 7.498929 H 17.445955 9.9470346 Z m 79.8854664,0 V -8.2137915e-6 H 107.2527 124.67288 V 17.445947 34.89191 H 107.2527 89.832501 Z m 29.892629,0 V 4.9992723 H 107.27846 94.831799 V 17.445947 29.892621 h 12.446661 12.44667 z m -19.997121,0 V 9.9470265 h 7.498921 7.49892 v 7.4989205 7.498929 h -7.49892 -7.498921 z M 74.834652,7.4989307 V 4.9992723 h 2.499649 2.49964 V 2.4996322 -8.2137915e-6 h 2.473873 2.473872 V 2.4996322 4.9992723 h -2.473872 -2.473873 v 2.4996584 2.49964 h -2.49964 -2.499649 z"
     style="fill:#000000;stroke-width:0.05153902" />
</svg>
