  0
SECTION
  2
HEADER
  9
$ACADVER
  1
AC1014
  9
$HANDSEED
  5
FFFF
  9
$MEASUREMENT
 70
     1
  0
ENDSEC
  0
SECTION
  2
TABLES
  0
TABLE
  2
VPORT
  5
8
330
0
100
AcDbSymbolTable
 70
     4
  0
VPORT
  5
2E
330
8
100
AcDbSymbolTableRecord
100
AcDbViewportTableRecord
  2
*ACTIVE
 70
     0
 10
0.0
 20
0.0
 11
1.0
 21
1.0
 12
210.0
 22
148.5
 13
0.0
 23
0.0
 14
10.0
 24
10.0
 15
10.0
 25
10.0
 16
0.0
 26
0.0
 36
1.0
 17
0.0
 27
0.0
 37
0.0
 40
341.0
 41
1.24
 42
50.0
 43
0.0
 44
0.0
 50
0.0
 51
0.0
 71
     0
 72
   100
 73
     1
 74
     3
 75
     0
 76
     0
 77
     0
 78
     0
  0
ENDTAB
  0
TABLE
  2
LTYPE
  5
5
330
0
100
AcDbSymbolTable
 70
     1
  0
LTYPE
  5
14
330
5
100
AcDbSymbolTableRecord
100
AcDbLinetypeTableRecord
  2
BYBLOCK
 70
     0
  3

 72
    65
 73
     0
 40
0.0
  0
LTYPE
  5
15
330
5
100
AcDbSymbolTableRecord
100
AcDbLinetypeTableRecord
  2
BYLAYER
 70
     0
  3

 72
    65
 73
     0
 40
0.0
  0
LTYPE
  5
16
330
5
100
AcDbSymbolTableRecord
100
AcDbLinetypeTableRecord
  2
CONTINUOUS
 70
     0
  3
Solid line
 72
    65
 73
     0
 40
0.0
  0
ENDTAB
  0
TABLE
  2
LAYER
  5
2
100
AcDbSymbolTable
 70
1
  0
LAYER
  5
50
100
AcDbSymbolTableRecord
100
AcDbLayerTableRecord
  2
0
 70
0
  6
CONTINUOUS
  0
ENDTAB
  0
TABLE
  2
STYLE
  5
3
330
0
100
AcDbSymbolTable
 70
     1
  0
STYLE
  5
11
330
3
100
AcDbSymbolTableRecord
100
AcDbTextStyleTableRecord
  2
STANDARD
 70
     0
 40
0.0
 41
1.0
 50
0.0
 71
     0
 42
2.5
  3
txt
  4

  0
ENDTAB
  0
TABLE
  2
VIEW
  5
6
330
0
100
AcDbSymbolTable
 70
     0
  0
ENDTAB
  0
TABLE
  2
UCS
  5
7
330
0
100
AcDbSymbolTable
 70
     0
  0
ENDTAB
  0
TABLE
  2
APPID
  5
9
330
0
100
AcDbSymbolTable
 70
     2
  0
APPID
  5
12
330
9
100
AcDbSymbolTableRecord
100
AcDbRegAppTableRecord
  2
ACAD
 70
     0
  0
ENDTAB
  0
TABLE
  2
DIMSTYLE
  5
A
330
0
100
AcDbSymbolTable
 70
     1
  0
DIMSTYLE
105
27
330
A
100
AcDbSymbolTableRecord
100
AcDbDimStyleTableRecord
  2
ISO-25
 70
     0
  3

  4

  5

  6

  7

 40
1.0
 41
2.5
 42
0.625
 43
3.75
 44
1.25
 45
0.0
 46
0.0
 47
0.0
 48
0.0
140
2.5
141
2.5
142
0.0
143
0.03937007874016
144
1.0
145
0.0
146
1.0
147
0.625
 71
     0
 72
     0
 73
     0
 74
     0
 75
     0
 76
     0
 77
     1
 78
     8
170
     0
171
     3
172
     1
173
     0
174
     0
175
     0
176
     0
177
     0
178
     0
270
     2
271
     2
272
     2
273
     2
274
     3
340
11
275
     0
280
     0
281
     0
282
     0
283
     0
284
     8
285
     0
286
     0
287
     3
288
     0
  0
ENDTAB
  0
TABLE
  2
BLOCK_RECORD
  5
1
330
0
100
AcDbSymbolTable
 70
     1
  0
BLOCK_RECORD
  5
1F
330
1
100
AcDbSymbolTableRecord
100
AcDbBlockTableRecord
  2
*MODEL_SPACE
  0
BLOCK_RECORD
  5
1B
330
1
100
AcDbSymbolTableRecord
100
AcDbBlockTableRecord
  2
*PAPER_SPACE
  0
ENDTAB
  0
ENDSEC
  0
SECTION
  2
BLOCKS
  0
BLOCK
  5
20
330
1F
100
AcDbEntity
  8
0
100
AcDbBlockBegin
  2
*MODEL_SPACE
 70
     0
 10
0.0
 20
0.0
 30
0.0
  3
*MODEL_SPACE
  1

  0
ENDBLK
  5
21
330
1F
100
AcDbEntity
  8
0
100
AcDbBlockEnd
  0
BLOCK
  5
1C
330
1B
100
AcDbEntity
 67
     1
  8
0
100
AcDbBlockBegin
  2
*PAPER_SPACE
  1

  0
ENDBLK
  5
1D
330
1B
100
AcDbEntity
 67
     1
  8
0
100
AcDbBlockEnd
  0
ENDSEC
  0
SECTION
  2
ENTITIES
  0
LINE
  5
100
100
AcDbEntity
  8
0
 62
7
100
AcDbLine
 10
12.169425
 20
3.799997
 30
0.0
 11
12.169425
 21
7.600001
 31
0.0
  0
LINE
  5
101
100
AcDbEntity
  8
0
 62
7
100
AcDbLine
 10
12.169425
 20
7.600001
 30
0.0
 11
13.684713
 21
7.600001
 31
0.0
  0
LINE
  5
102
100
AcDbEntity
  8
0
 62
7
100
AcDbLine
 10
13.684713
 20
7.600001
 30
0.0
 11
15.200005
 21
7.600001
 31
0.0
  0
LINE
  5
103
100
AcDbEntity
  8
0
 62
7
100
AcDbLine
 10
15.200005
 20
7.600001
 30
0.0
 11
15.200005
 21
8.361572
 31
0.0
  0
LINE
  5
104
100
AcDbEntity
  8
0
 62
7
100
AcDbLine
 10
15.200005
 20
8.361572
 30
0.0
 11
15.200005
 21
9.123138
 31
0.0
  0
LINE
  5
105
100
AcDbEntity
  8
0
 62
7
100
AcDbLine
 10
15.200005
 20
9.123138
 30
0.0
 11
13.684713
 21
9.123138
 31
0.0
  0
LINE
  5
106
100
AcDbEntity
  8
0
 62
7
100
AcDbLine
 10
13.684713
 20
9.123138
 30
0.0
 11
12.169425
 21
9.123138
 31
0.0
  0
LINE
  5
107
100
AcDbEntity
  8
0
 62
7
100
AcDbLine
 10
12.169425
 20
9.123138
 30
0.0
 11
12.169425
 21
10.646284
 31
0.0
  0
LINE
  5
108
100
AcDbEntity
  8
0
 62
7
100
AcDbLine
 10
12.169425
 20
10.646284
 30
0.0
 11
12.169425
 21
12.169427
 31
0.0
  0
LINE
  5
109
100
AcDbEntity
  8
0
 62
7
100
AcDbLine
 10
12.169425
 20
12.169427
 30
0.0
 11
10.646285
 21
12.169427
 31
0.0
  0
LINE
  5
10a
100
AcDbEntity
  8
0
 62
7
100
AcDbLine
 10
10.646285
 20
12.169427
 30
0.0
 11
9.123146
 21
12.169427
 31
0.0
  0
LINE
  5
10b
100
AcDbEntity
  8
0
 62
7
100
AcDbLine
 10
9.123146
 20
12.169427
 30
0.0
 11
9.123146
 21
12.923140
 31
0.0
  0
LINE
  5
10c
100
AcDbEntity
  8
0
 62
7
100
AcDbLine
 10
9.123146
 20
12.923140
 30
0.0
 11
9.123146
 21
13.676859
 31
0.0
  0
LINE
  5
10d
100
AcDbEntity
  8
0
 62
7
100
AcDbLine
 10
9.123146
 20
13.676859
 30
0.0
 11
9.884715
 21
13.676859
 31
0.0
  0
LINE
  5
10e
100
AcDbEntity
  8
0
 62
7
100
AcDbLine
 10
9.884715
 20
13.676859
 30
0.0
 11
10.646285
 21
13.676859
 31
0.0
  0
LINE
  5
10f
100
AcDbEntity
  8
0
 62
7
100
AcDbLine
 10
10.646285
 20
13.676859
 30
0.0
 11
10.646285
 21
14.438428
 31
0.0
  0
LINE
  5
110
100
AcDbEntity
  8
0
 62
7
100
AcDbLine
 10
10.646285
 20
14.438428
 30
0.0
 11
10.646285
 21
15.199998
 31
0.0
  0
LINE
  5
111
100
AcDbEntity
  8
0
 62
7
100
AcDbLine
 10
10.646285
 20
15.199998
 30
0.0
 11
8.361573
 21
15.199998
 31
0.0
  0
LINE
  5
112
100
AcDbEntity
  8
0
 62
7
100
AcDbLine
 10
8.361573
 20
15.199998
 30
0.0
 11
6.076859
 21
15.199998
 31
0.0
  0
LINE
  5
113
100
AcDbEntity
  8
0
 62
7
100
AcDbLine
 10
6.076859
 20
15.199998
 30
0.0
 11
6.076859
 21
16.723144
 31
0.0
  0
LINE
  5
114
100
AcDbEntity
  8
0
 62
7
100
AcDbLine
 10
6.076859
 20
16.723144
 30
0.0
 11
6.076859
 21
18.246286
 31
0.0
  0
LINE
  5
115
100
AcDbEntity
  8
0
 62
7
100
AcDbLine
 10
6.076859
 20
18.246286
 30
0.0
 11
5.323145
 21
18.246286
 31
0.0
  0
LINE
  5
116
100
AcDbEntity
  8
0
 62
7
100
AcDbLine
 10
5.323145
 20
18.246286
 30
0.0
 11
4.569424
 21
18.246286
 31
0.0
  0
LINE
  5
117
100
AcDbEntity
  8
0
 62
7
100
AcDbLine
 10
4.569424
 20
18.246286
 30
0.0
 11
4.569424
 21
15.207856
 31
0.0
  0
LINE
  5
118
100
AcDbEntity
  8
0
 62
7
100
AcDbLine
 10
4.569424
 20
15.207856
 30
0.0
 11
4.569424
 21
12.169427
 31
0.0
  0
LINE
  5
119
100
AcDbEntity
  8
0
 62
7
100
AcDbLine
 10
4.569424
 20
12.169427
 30
0.0
 11
3.807854
 21
12.169427
 31
0.0
  0
LINE
  5
11a
100
AcDbEntity
  8
0
 62
7
100
AcDbLine
 10
3.807854
 20
12.169427
 30
0.0
 11
3.046284
 21
12.169427
 31
0.0
  0
LINE
  5
11b
100
AcDbEntity
  8
0
 62
7
100
AcDbLine
 10
3.046284
 20
12.169427
 30
0.0
 11
3.046284
 21
14.446286
 31
0.0
  0
LINE
  5
11c
100
AcDbEntity
  8
0
 62
7
100
AcDbLine
 10
3.046284
 20
14.446286
 30
0.0
 11
3.046284
 21
16.723144
 31
0.0
  0
LINE
  5
11d
100
AcDbEntity
  8
0
 62
7
100
AcDbLine
 10
3.046284
 20
16.723144
 30
0.0
 11
2.284715
 21
16.723144
 31
0.0
  0
LINE
  5
11e
100
AcDbEntity
  8
0
 62
7
100
AcDbLine
 10
2.284715
 20
16.723144
 30
0.0
 11
1.523145
 21
16.723144
 31
0.0
  0
LINE
  5
11f
100
AcDbEntity
  8
0
 62
7
100
AcDbLine
 10
1.523145
 20
16.723144
 30
0.0
 11
1.523145
 21
14.446286
 31
0.0
  0
LINE
  5
120
100
AcDbEntity
  8
0
 62
7
100
AcDbLine
 10
1.523145
 20
14.446286
 30
0.0
 11
1.523145
 21
12.169427
 31
0.0
  0
LINE
  5
121
100
AcDbEntity
  8
0
 62
7
100
AcDbLine
 10
1.523145
 20
12.169427
 30
0.0
 11
0.761575
 21
12.169427
 31
0.0
  0
LINE
  5
122
100
AcDbEntity
  8
0
 62
7
100
AcDbLine
 10
0.761575
 20
12.169427
 30
0.0
 11
0.000000
 21
12.169427
 31
0.0
  0
LINE
  5
123
100
AcDbEntity
  8
0
 62
7
100
AcDbLine
 10
0.000000
 20
12.169427
 30
0.0
 11
0.000000
 21
15.207856
 31
0.0
  0
LINE
  5
124
100
AcDbEntity
  8
0
 62
7
100
AcDbLine
 10
0.000000
 20
15.207856
 30
0.0
 11
0.000000
 21
18.246286
 31
0.0
  0
LINE
  5
125
100
AcDbEntity
  8
0
 62
7
100
AcDbLine
 10
0.000000
 20
18.246286
 30
0.0
 11
1.523145
 21
18.246286
 31
0.0
  0
LINE
  5
126
100
AcDbEntity
  8
0
 62
7
100
AcDbLine
 10
1.523145
 20
18.246286
 30
0.0
 11
3.046284
 21
18.246286
 31
0.0
  0
LINE
  5
127
100
AcDbEntity
  8
0
 62
7
100
AcDbLine
 10
3.046284
 20
18.246286
 30
0.0
 11
3.046284
 21
18.999999
 31
0.0
  0
LINE
  5
128
100
AcDbEntity
  8
0
 62
7
100
AcDbLine
 10
3.046284
 20
18.999999
 30
0.0
 11
3.046284
 21
19.753721
 31
0.0
  0
LINE
  5
129
100
AcDbEntity
  8
0
 62
7
100
AcDbLine
 10
3.046284
 20
19.753721
 30
0.0
 11
1.523145
 21
19.753721
 31
0.0
  0
LINE
  5
12a
100
AcDbEntity
  8
0
 62
7
100
AcDbLine
 10
1.523145
 20
19.753721
 30
0.0
 11
0.000000
 21
19.753721
 31
0.0
  0
LINE
  5
12b
100
AcDbEntity
  8
0
 62
7
100
AcDbLine
 10
0.000000
 20
19.753721
 30
0.0
 11
0.000000
 21
21.276861
 31
0.0
  0
LINE
  5
12c
100
AcDbEntity
  8
0
 62
7
100
AcDbLine
 10
0.000000
 20
21.276861
 30
0.0
 11
0.000000
 21
22.800006
 31
0.0
  0
LINE
  5
12d
100
AcDbEntity
  8
0
 62
7
100
AcDbLine
 10
0.000000
 20
22.800006
 30
0.0
 11
0.761575
 21
22.800006
 31
0.0
  0
LINE
  5
12e
100
AcDbEntity
  8
0
 62
7
100
AcDbLine
 10
0.761575
 20
22.800006
 30
0.0
 11
1.523145
 21
22.800006
 31
0.0
  0
LINE
  5
12f
100
AcDbEntity
  8
0
 62
7
100
AcDbLine
 10
1.523145
 20
22.800006
 30
0.0
 11
1.523145
 21
22.038436
 31
0.0
  0
LINE
  5
130
100
AcDbEntity
  8
0
 62
7
100
AcDbLine
 10
1.523145
 20
22.038436
 30
0.0
 11
1.523145
 21
21.276861
 31
0.0
  0
LINE
  5
131
100
AcDbEntity
  8
0
 62
7
100
AcDbLine
 10
1.523145
 20
21.276861
 30
0.0
 11
3.800006
 21
21.276861
 31
0.0
  0
LINE
  5
132
100
AcDbEntity
  8
0
 62
7
100
AcDbLine
 10
3.800006
 20
21.276861
 30
0.0
 11
6.076859
 21
21.276861
 31
0.0
  0
LINE
  5
133
100
AcDbEntity
  8
0
 62
7
100
AcDbLine
 10
6.076859
 20
21.276861
 30
0.0
 11
6.076859
 21
22.038436
 31
0.0
  0
LINE
  5
134
100
AcDbEntity
  8
0
 62
7
100
AcDbLine
 10
6.076859
 20
22.038436
 30
0.0
 11
6.076859
 21
22.800006
 31
0.0
  0
LINE
  5
135
100
AcDbEntity
  8
0
 62
7
100
AcDbLine
 10
6.076859
 20
22.800006
 30
0.0
 11
5.323145
 21
22.800006
 31
0.0
  0
LINE
  5
136
100
AcDbEntity
  8
0
 62
7
100
AcDbLine
 10
5.323145
 20
22.800006
 30
0.0
 11
4.569424
 21
22.800006
 31
0.0
  0
LINE
  5
137
100
AcDbEntity
  8
0
 62
7
100
AcDbLine
 10
4.569424
 20
22.800006
 30
0.0
 11
4.569424
 21
23.561575
 31
0.0
  0
LINE
  5
138
100
AcDbEntity
  8
0
 62
7
100
AcDbLine
 10
4.569424
 20
23.561575
 30
0.0
 11
4.569424
 21
24.323145
 31
0.0
  0
LINE
  5
139
100
AcDbEntity
  8
0
 62
7
100
AcDbLine
 10
4.569424
 20
24.323145
 30
0.0
 11
2.284715
 21
24.323145
 31
0.0
  0
LINE
  5
13a
100
AcDbEntity
  8
0
 62
7
100
AcDbLine
 10
2.284715
 20
24.323145
 30
0.0
 11
0.000000
 21
24.323145
 31
0.0
  0
LINE
  5
13b
100
AcDbEntity
  8
0
 62
7
100
AcDbLine
 10
0.000000
 20
24.323145
 30
0.0
 11
0.000000
 21
25.076864
 31
0.0
  0
LINE
  5
13c
100
AcDbEntity
  8
0
 62
7
100
AcDbLine
 10
0.000000
 20
25.076864
 30
0.0
 11
0.000000
 21
25.830580
 31
0.0
  0
LINE
  5
13d
100
AcDbEntity
  8
0
 62
7
100
AcDbLine
 10
0.000000
 20
25.830580
 30
0.0
 11
3.800006
 21
25.830580
 31
0.0
  0
LINE
  5
13e
100
AcDbEntity
  8
0
 62
7
100
AcDbLine
 10
3.800006
 20
25.830580
 30
0.0
 11
7.600004
 21
25.830580
 31
0.0
  0
LINE
  5
13f
100
AcDbEntity
  8
0
 62
7
100
AcDbLine
 10
7.600004
 20
25.830580
 30
0.0
 11
7.600004
 21
25.076864
 31
0.0
  0
LINE
  5
140
100
AcDbEntity
  8
0
 62
7
100
AcDbLine
 10
7.600004
 20
25.076864
 30
0.0
 11
7.600004
 21
24.323145
 31
0.0
  0
LINE
  5
141
100
AcDbEntity
  8
0
 62
7
100
AcDbLine
 10
7.600004
 20
24.323145
 30
0.0
 11
8.361573
 21
24.323145
 31
0.0
  0
LINE
  5
142
100
AcDbEntity
  8
0
 62
7
100
AcDbLine
 10
8.361573
 20
24.323145
 30
0.0
 11
9.123146
 21
24.323145
 31
0.0
  0
LINE
  5
143
100
AcDbEntity
  8
0
 62
7
100
AcDbLine
 10
9.123146
 20
24.323145
 30
0.0
 11
9.123146
 21
25.076864
 31
0.0
  0
LINE
  5
144
100
AcDbEntity
  8
0
 62
7
100
AcDbLine
 10
9.123146
 20
25.076864
 30
0.0
 11
9.123146
 21
25.830580
 31
0.0
  0
LINE
  5
145
100
AcDbEntity
  8
0
 62
7
100
AcDbLine
 10
9.123146
 20
25.830580
 30
0.0
 11
12.923143
 21
25.830580
 31
0.0
  0
LINE
  5
146
100
AcDbEntity
  8
0
 62
7
100
AcDbLine
 10
12.923143
 20
25.830580
 30
0.0
 11
16.723144
 21
25.830580
 31
0.0
  0
LINE
  5
147
100
AcDbEntity
  8
0
 62
7
100
AcDbLine
 10
16.723144
 20
25.830580
 30
0.0
 11
16.723144
 21
25.076864
 31
0.0
  0
LINE
  5
148
100
AcDbEntity
  8
0
 62
7
100
AcDbLine
 10
16.723144
 20
25.076864
 30
0.0
 11
16.723144
 21
24.323145
 31
0.0
  0
LINE
  5
149
100
AcDbEntity
  8
0
 62
7
100
AcDbLine
 10
16.723144
 20
24.323145
 30
0.0
 11
15.961574
 21
24.323145
 31
0.0
  0
LINE
  5
14a
100
AcDbEntity
  8
0
 62
7
100
AcDbLine
 10
15.961574
 20
24.323145
 30
0.0
 11
15.200005
 21
24.323145
 31
0.0
  0
LINE
  5
14b
100
AcDbEntity
  8
0
 62
7
100
AcDbLine
 10
15.200005
 20
24.323145
 30
0.0
 11
15.200005
 21
22.800006
 31
0.0
  0
LINE
  5
14c
100
AcDbEntity
  8
0
 62
7
100
AcDbLine
 10
15.200005
 20
22.800006
 30
0.0
 11
15.200005
 21
21.276861
 31
0.0
  0
LINE
  5
14d
100
AcDbEntity
  8
0
 62
7
100
AcDbLine
 10
15.200005
 20
21.276861
 30
0.0
 11
15.961574
 21
21.276861
 31
0.0
  0
LINE
  5
14e
100
AcDbEntity
  8
0
 62
7
100
AcDbLine
 10
15.961574
 20
21.276861
 30
0.0
 11
16.723144
 21
21.276861
 31
0.0
  0
LINE
  5
14f
100
AcDbEntity
  8
0
 62
7
100
AcDbLine
 10
16.723144
 20
21.276861
 30
0.0
 11
16.723144
 21
22.038436
 31
0.0
  0
LINE
  5
150
100
AcDbEntity
  8
0
 62
7
100
AcDbLine
 10
16.723144
 20
22.038436
 30
0.0
 11
16.723144
 21
22.800006
 31
0.0
  0
LINE
  5
151
100
AcDbEntity
  8
0
 62
7
100
AcDbLine
 10
16.723144
 20
22.800006
 30
0.0
 11
18.238435
 21
22.800006
 31
0.0
  0
LINE
  5
152
100
AcDbEntity
  8
0
 62
7
100
AcDbLine
 10
18.238435
 20
22.800006
 30
0.0
 11
19.753724
 21
22.800006
 31
0.0
  0
LINE
  5
153
100
AcDbEntity
  8
0
 62
7
100
AcDbLine
 10
19.753724
 20
22.800006
 30
0.0
 11
19.753724
 21
22.038436
 31
0.0
  0
LINE
  5
154
100
AcDbEntity
  8
0
 62
7
100
AcDbLine
 10
19.753724
 20
22.038436
 30
0.0
 11
19.753724
 21
21.276861
 31
0.0
  0
LINE
  5
155
100
AcDbEntity
  8
0
 62
7
100
AcDbLine
 10
19.753724
 20
21.276861
 30
0.0
 11
19.000005
 21
21.276861
 31
0.0
  0
LINE
  5
156
100
AcDbEntity
  8
0
 62
7
100
AcDbLine
 10
19.000005
 20
21.276861
 30
0.0
 11
18.246283
 21
21.276861
 31
0.0
  0
LINE
  5
157
100
AcDbEntity
  8
0
 62
7
100
AcDbLine
 10
18.246283
 20
21.276861
 30
0.0
 11
18.246283
 21
19.761575
 31
0.0
  0
LINE
  5
158
100
AcDbEntity
  8
0
 62
7
100
AcDbLine
 10
18.246283
 20
19.761575
 30
0.0
 11
18.246283
 21
18.246286
 31
0.0
  0
LINE
  5
159
100
AcDbEntity
  8
0
 62
7
100
AcDbLine
 10
18.246283
 20
18.246286
 30
0.0
 11
19.000005
 21
18.246286
 31
0.0
  0
LINE
  5
15a
100
AcDbEntity
  8
0
 62
7
100
AcDbLine
 10
19.000005
 20
18.246286
 30
0.0
 11
19.753724
 21
18.246286
 31
0.0
  0
LINE
  5
15b
100
AcDbEntity
  8
0
 62
7
100
AcDbLine
 10
19.753724
 20
18.246286
 30
0.0
 11
19.753724
 21
17.484714
 31
0.0
  0
LINE
  5
15c
100
AcDbEntity
  8
0
 62
7
100
AcDbLine
 10
19.753724
 20
17.484714
 30
0.0
 11
19.753724
 21
16.723144
 31
0.0
  0
LINE
  5
15d
100
AcDbEntity
  8
0
 62
7
100
AcDbLine
 10
19.753724
 20
16.723144
 30
0.0
 11
22.038433
 21
16.723144
 31
0.0
  0
LINE
  5
15e
100
AcDbEntity
  8
0
 62
7
100
AcDbLine
 10
22.038433
 20
16.723144
 30
0.0
 11
24.323145
 21
16.723144
 31
0.0
  0
LINE
  5
15f
100
AcDbEntity
  8
0
 62
7
100
AcDbLine
 10
24.323145
 20
16.723144
 30
0.0
 11
24.323145
 21
17.484714
 31
0.0
  0
LINE
  5
160
100
AcDbEntity
  8
0
 62
7
100
AcDbLine
 10
24.323145
 20
17.484714
 30
0.0
 11
24.323145
 21
18.246286
 31
0.0
  0
LINE
  5
161
100
AcDbEntity
  8
0
 62
7
100
AcDbLine
 10
24.323145
 20
18.246286
 30
0.0
 11
22.800003
 21
18.246286
 31
0.0
  0
LINE
  5
162
100
AcDbEntity
  8
0
 62
7
100
AcDbLine
 10
22.800003
 20
18.246286
 30
0.0
 11
21.276864
 21
18.246286
 31
0.0
  0
LINE
  5
163
100
AcDbEntity
  8
0
 62
7
100
AcDbLine
 10
21.276864
 20
18.246286
 30
0.0
 11
21.276864
 21
18.999999
 31
0.0
  0
LINE
  5
164
100
AcDbEntity
  8
0
 62
7
100
AcDbLine
 10
21.276864
 20
18.999999
 30
0.0
 11
21.276864
 21
19.753721
 31
0.0
  0
LINE
  5
165
100
AcDbEntity
  8
0
 62
7
100
AcDbLine
 10
21.276864
 20
19.753721
 30
0.0
 11
22.038433
 21
19.753721
 31
0.0
  0
LINE
  5
166
100
AcDbEntity
  8
0
 62
7
100
AcDbLine
 10
22.038433
 20
19.753721
 30
0.0
 11
22.800003
 21
19.753721
 31
0.0
  0
LINE
  5
167
100
AcDbEntity
  8
0
 62
7
100
AcDbLine
 10
22.800003
 20
19.753721
 30
0.0
 11
22.800003
 21
20.515291
 31
0.0
  0
LINE
  5
168
100
AcDbEntity
  8
0
 62
7
100
AcDbLine
 10
22.800003
 20
20.515291
 30
0.0
 11
22.800003
 21
21.276861
 31
0.0
  0
LINE
  5
169
100
AcDbEntity
  8
0
 62
7
100
AcDbLine
 10
22.800003
 20
21.276861
 30
0.0
 11
22.038433
 21
21.276861
 31
0.0
  0
LINE
  5
16a
100
AcDbEntity
  8
0
 62
7
100
AcDbLine
 10
22.038433
 20
21.276861
 30
0.0
 11
21.276864
 21
21.276861
 31
0.0
  0
LINE
  5
16b
100
AcDbEntity
  8
0
 62
7
100
AcDbLine
 10
21.276864
 20
21.276861
 30
0.0
 11
21.276864
 21
22.800006
 31
0.0
  0
LINE
  5
16c
100
AcDbEntity
  8
0
 62
7
100
AcDbLine
 10
21.276864
 20
22.800006
 30
0.0
 11
21.276864
 21
24.323145
 31
0.0
  0
LINE
  5
16d
100
AcDbEntity
  8
0
 62
7
100
AcDbLine
 10
21.276864
 20
24.323145
 30
0.0
 11
19.761575
 21
24.323145
 31
0.0
  0
LINE
  5
16e
100
AcDbEntity
  8
0
 62
7
100
AcDbLine
 10
19.761575
 20
24.323145
 30
0.0
 11
18.246283
 21
24.323145
 31
0.0
  0
LINE
  5
16f
100
AcDbEntity
  8
0
 62
7
100
AcDbLine
 10
18.246283
 20
24.323145
 30
0.0
 11
18.246283
 21
26.600006
 31
0.0
  0
LINE
  5
170
100
AcDbEntity
  8
0
 62
7
100
AcDbLine
 10
18.246283
 20
26.600006
 30
0.0
 11
18.246283
 21
28.876864
 31
0.0
  0
LINE
  5
171
100
AcDbEntity
  8
0
 62
7
100
AcDbLine
 10
18.246283
 20
28.876864
 30
0.0
 11
19.000005
 21
28.876864
 31
0.0
  0
LINE
  5
172
100
AcDbEntity
  8
0
 62
7
100
AcDbLine
 10
19.000005
 20
28.876864
 30
0.0
 11
19.753724
 21
28.876864
 31
0.0
  0
LINE
  5
173
100
AcDbEntity
  8
0
 62
7
100
AcDbLine
 10
19.753724
 20
28.876864
 30
0.0
 11
19.753724
 21
27.353719
 31
0.0
  0
LINE
  5
174
100
AcDbEntity
  8
0
 62
7
100
AcDbLine
 10
19.753724
 20
27.353719
 30
0.0
 11
19.753724
 21
25.830580
 31
0.0
  0
LINE
  5
175
100
AcDbEntity
  8
0
 62
7
100
AcDbLine
 10
19.753724
 20
25.830580
 30
0.0
 11
20.515294
 21
25.830580
 31
0.0
  0
LINE
  5
176
100
AcDbEntity
  8
0
 62
7
100
AcDbLine
 10
20.515294
 20
25.830580
 30
0.0
 11
21.276864
 21
25.830580
 31
0.0
  0
LINE
  5
177
100
AcDbEntity
  8
0
 62
7
100
AcDbLine
 10
21.276864
 20
25.830580
 30
0.0
 11
21.276864
 21
25.076864
 31
0.0
  0
LINE
  5
178
100
AcDbEntity
  8
0
 62
7
100
AcDbLine
 10
21.276864
 20
25.076864
 30
0.0
 11
21.276864
 21
24.323145
 31
0.0
  0
LINE
  5
179
100
AcDbEntity
  8
0
 62
7
100
AcDbLine
 10
21.276864
 20
24.323145
 30
0.0
 11
22.038433
 21
24.323145
 31
0.0
  0
LINE
  5
17a
100
AcDbEntity
  8
0
 62
7
100
AcDbLine
 10
22.038433
 20
24.323145
 30
0.0
 11
22.800003
 21
24.323145
 31
0.0
  0
LINE
  5
17b
100
AcDbEntity
  8
0
 62
7
100
AcDbLine
 10
22.800003
 20
24.323145
 30
0.0
 11
22.800003
 21
23.561575
 31
0.0
  0
LINE
  5
17c
100
AcDbEntity
  8
0
 62
7
100
AcDbLine
 10
22.800003
 20
23.561575
 30
0.0
 11
22.800003
 21
22.800006
 31
0.0
  0
LINE
  5
17d
100
AcDbEntity
  8
0
 62
7
100
AcDbLine
 10
22.800003
 20
22.800006
 30
0.0
 11
25.838432
 21
22.800006
 31
0.0
  0
LINE
  5
17e
100
AcDbEntity
  8
0
 62
7
100
AcDbLine
 10
25.838432
 20
22.800006
 30
0.0
 11
28.876864
 21
22.800006
 31
0.0
  0
LINE
  5
17f
100
AcDbEntity
  8
0
 62
7
100
AcDbLine
 10
28.876864
 20
22.800006
 30
0.0
 11
28.876864
 21
24.315288
 31
0.0
  0
LINE
  5
180
100
AcDbEntity
  8
0
 62
7
100
AcDbLine
 10
28.876864
 20
24.315288
 30
0.0
 11
28.876864
 21
25.830580
 31
0.0
  0
LINE
  5
181
100
AcDbEntity
  8
0
 62
7
100
AcDbLine
 10
28.876864
 20
25.830580
 30
0.0
 11
29.638432
 21
25.830580
 31
0.0
  0
LINE
  5
182
100
AcDbEntity
  8
0
 62
7
100
AcDbLine
 10
29.638432
 20
25.830580
 30
0.0
 11
30.400004
 21
25.830580
 31
0.0
  0
LINE
  5
183
100
AcDbEntity
  8
0
 62
7
100
AcDbLine
 10
30.400004
 20
25.830580
 30
0.0
 11
30.400004
 21
24.315288
 31
0.0
  0
LINE
  5
184
100
AcDbEntity
  8
0
 62
7
100
AcDbLine
 10
30.400004
 20
24.315288
 30
0.0
 11
30.400004
 21
22.800006
 31
0.0
  0
LINE
  5
185
100
AcDbEntity
  8
0
 62
7
100
AcDbLine
 10
30.400004
 20
22.800006
 30
0.0
 11
31.915291
 21
22.800006
 31
0.0
  0
LINE
  5
186
100
AcDbEntity
  8
0
 62
7
100
AcDbLine
 10
31.915291
 20
22.800006
 30
0.0
 11
33.430584
 21
22.800006
 31
0.0
  0
LINE
  5
187
100
AcDbEntity
  8
0
 62
7
100
AcDbLine
 10
33.430584
 20
22.800006
 30
0.0
 11
33.430584
 21
22.038436
 31
0.0
  0
LINE
  5
188
100
AcDbEntity
  8
0
 62
7
100
AcDbLine
 10
33.430584
 20
22.038436
 30
0.0
 11
33.430584
 21
21.276861
 31
0.0
  0
LINE
  5
189
100
AcDbEntity
  8
0
 62
7
100
AcDbLine
 10
33.430584
 20
21.276861
 30
0.0
 11
32.676865
 21
21.276861
 31
0.0
  0
LINE
  5
18a
100
AcDbEntity
  8
0
 62
7
100
AcDbLine
 10
32.676865
 20
21.276861
 30
0.0
 11
31.923144
 21
21.276861
 31
0.0
  0
LINE
  5
18b
100
AcDbEntity
  8
0
 62
7
100
AcDbLine
 10
31.923144
 20
21.276861
 30
0.0
 11
31.923144
 21
19.761575
 31
0.0
  0
LINE
  5
18c
100
AcDbEntity
  8
0
 62
7
100
AcDbLine
 10
31.923144
 20
19.761575
 30
0.0
 11
31.923144
 21
18.246286
 31
0.0
  0
LINE
  5
18d
100
AcDbEntity
  8
0
 62
7
100
AcDbLine
 10
31.923144
 20
18.246286
 30
0.0
 11
32.676865
 21
18.246286
 31
0.0
  0
LINE
  5
18e
100
AcDbEntity
  8
0
 62
7
100
AcDbLine
 10
32.676865
 20
18.246286
 30
0.0
 11
33.430584
 21
18.246286
 31
0.0
  0
LINE
  5
18f
100
AcDbEntity
  8
0
 62
7
100
AcDbLine
 10
33.430584
 20
18.246286
 30
0.0
 11
33.430584
 21
18.999999
 31
0.0
  0
LINE
  5
190
100
AcDbEntity
  8
0
 62
7
100
AcDbLine
 10
33.430584
 20
18.999999
 30
0.0
 11
33.430584
 21
19.753721
 31
0.0
  0
LINE
  5
191
100
AcDbEntity
  8
0
 62
7
100
AcDbLine
 10
33.430584
 20
19.753721
 30
0.0
 11
34.953724
 21
19.753721
 31
0.0
  0
LINE
  5
192
100
AcDbEntity
  8
0
 62
7
100
AcDbLine
 10
34.953724
 20
19.753721
 30
0.0
 11
36.476861
 21
19.753721
 31
0.0
  0
LINE
  5
193
100
AcDbEntity
  8
0
 62
7
100
AcDbLine
 10
36.476861
 20
19.753721
 30
0.0
 11
36.476861
 21
20.515291
 31
0.0
  0
LINE
  5
194
100
AcDbEntity
  8
0
 62
7
100
AcDbLine
 10
36.476861
 20
20.515291
 30
0.0
 11
36.476861
 21
21.276861
 31
0.0
  0
LINE
  5
195
100
AcDbEntity
  8
0
 62
7
100
AcDbLine
 10
36.476861
 20
21.276861
 30
0.0
 11
35.715292
 21
21.276861
 31
0.0
  0
LINE
  5
196
100
AcDbEntity
  8
0
 62
7
100
AcDbLine
 10
35.715292
 20
21.276861
 30
0.0
 11
34.953724
 21
21.276861
 31
0.0
  0
LINE
  5
197
100
AcDbEntity
  8
0
 62
7
100
AcDbLine
 10
34.953724
 20
21.276861
 30
0.0
 11
34.953724
 21
23.553719
 31
0.0
  0
LINE
  5
198
100
AcDbEntity
  8
0
 62
7
100
AcDbLine
 10
34.953724
 20
23.553719
 30
0.0
 11
34.953724
 21
25.830580
 31
0.0
  0
LINE
  5
199
100
AcDbEntity
  8
0
 62
7
100
AcDbLine
 10
34.953724
 20
25.830580
 30
0.0
 11
35.715292
 21
25.830580
 31
0.0
  0
LINE
  5
19a
100
AcDbEntity
  8
0
 62
7
100
AcDbLine
 10
35.715292
 20
25.830580
 30
0.0
 11
36.476861
 21
25.830580
 31
0.0
  0
LINE
  5
19b
100
AcDbEntity
  8
0
 62
7
100
AcDbLine
 10
36.476861
 20
25.830580
 30
0.0
 11
36.476861
 21
24.315288
 31
0.0
  0
LINE
  5
19c
100
AcDbEntity
  8
0
 62
7
100
AcDbLine
 10
36.476861
 20
24.315288
 30
0.0
 11
36.476861
 21
22.800006
 31
0.0
  0
LINE
  5
19d
100
AcDbEntity
  8
0
 62
7
100
AcDbLine
 10
36.476861
 20
22.800006
 30
0.0
 11
37.238433
 21
22.800006
 31
0.0
  0
LINE
  5
19e
100
AcDbEntity
  8
0
 62
7
100
AcDbLine
 10
37.238433
 20
22.800006
 30
0.0
 11
38.000001
 21
22.800006
 31
0.0
  0
LINE
  5
19f
100
AcDbEntity
  8
0
 62
7
100
AcDbLine
 10
38.000001
 20
22.800006
 30
0.0
 11
38.000001
 21
20.523145
 31
0.0
  0
LINE
  5
1a0
100
AcDbEntity
  8
0
 62
7
100
AcDbLine
 10
38.000001
 20
20.523145
 30
0.0
 11
38.000001
 21
18.246286
 31
0.0
  0
LINE
  5
1a1
100
AcDbEntity
  8
0
 62
7
100
AcDbLine
 10
38.000001
 20
18.246286
 30
0.0
 11
37.238433
 21
18.246286
 31
0.0
  0
LINE
  5
1a2
100
AcDbEntity
  8
0
 62
7
100
AcDbLine
 10
37.238433
 20
18.246286
 30
0.0
 11
36.476861
 21
18.246286
 31
0.0
  0
LINE
  5
1a3
100
AcDbEntity
  8
0
 62
7
100
AcDbLine
 10
36.476861
 20
18.246286
 30
0.0
 11
36.476861
 21
17.484714
 31
0.0
  0
LINE
  5
1a4
100
AcDbEntity
  8
0
 62
7
100
AcDbLine
 10
36.476861
 20
17.484714
 30
0.0
 11
36.476861
 21
16.723144
 31
0.0
  0
LINE
  5
1a5
100
AcDbEntity
  8
0
 62
7
100
AcDbLine
 10
36.476861
 20
16.723144
 30
0.0
 11
37.238433
 21
16.723144
 31
0.0
  0
LINE
  5
1a6
100
AcDbEntity
  8
0
 62
7
100
AcDbLine
 10
37.238433
 20
16.723144
 30
0.0
 11
38.000001
 21
16.723144
 31
0.0
  0
LINE
  5
1a7
100
AcDbEntity
  8
0
 62
7
100
AcDbLine
 10
38.000001
 20
16.723144
 30
0.0
 11
38.000001
 21
15.199998
 31
0.0
  0
LINE
  5
1a8
100
AcDbEntity
  8
0
 62
7
100
AcDbLine
 10
38.000001
 20
15.199998
 30
0.0
 11
38.000001
 21
13.676859
 31
0.0
  0
LINE
  5
1a9
100
AcDbEntity
  8
0
 62
7
100
AcDbLine
 10
38.000001
 20
13.676859
 30
0.0
 11
37.238433
 21
13.676859
 31
0.0
  0
LINE
  5
1aa
100
AcDbEntity
  8
0
 62
7
100
AcDbLine
 10
37.238433
 20
13.676859
 30
0.0
 11
36.476861
 21
13.676859
 31
0.0
  0
LINE
  5
1ab
100
AcDbEntity
  8
0
 62
7
100
AcDbLine
 10
36.476861
 20
13.676859
 30
0.0
 11
36.476861
 21
14.438428
 31
0.0
  0
LINE
  5
1ac
100
AcDbEntity
  8
0
 62
7
100
AcDbLine
 10
36.476861
 20
14.438428
 30
0.0
 11
36.476861
 21
15.199998
 31
0.0
  0
LINE
  5
1ad
100
AcDbEntity
  8
0
 62
7
100
AcDbLine
 10
36.476861
 20
15.199998
 30
0.0
 11
35.715292
 21
15.199998
 31
0.0
  0
LINE
  5
1ae
100
AcDbEntity
  8
0
 62
7
100
AcDbLine
 10
35.715292
 20
15.199998
 30
0.0
 11
34.953724
 21
15.199998
 31
0.0
  0
LINE
  5
1af
100
AcDbEntity
  8
0
 62
7
100
AcDbLine
 10
34.953724
 20
15.199998
 30
0.0
 11
34.953724
 21
16.723144
 31
0.0
  0
LINE
  5
1b0
100
AcDbEntity
  8
0
 62
7
100
AcDbLine
 10
34.953724
 20
16.723144
 30
0.0
 11
34.953724
 21
18.246286
 31
0.0
  0
LINE
  5
1b1
100
AcDbEntity
  8
0
 62
7
100
AcDbLine
 10
34.953724
 20
18.246286
 30
0.0
 11
34.192152
 21
18.246286
 31
0.0
  0
LINE
  5
1b2
100
AcDbEntity
  8
0
 62
7
100
AcDbLine
 10
34.192152
 20
18.246286
 30
0.0
 11
33.430584
 21
18.246286
 31
0.0
  0
LINE
  5
1b3
100
AcDbEntity
  8
0
 62
7
100
AcDbLine
 10
33.430584
 20
18.246286
 30
0.0
 11
33.430584
 21
15.961572
 31
0.0
  0
LINE
  5
1b4
100
AcDbEntity
  8
0
 62
7
100
AcDbLine
 10
33.430584
 20
15.961572
 30
0.0
 11
33.430584
 21
13.676859
 31
0.0
  0
LINE
  5
1b5
100
AcDbEntity
  8
0
 62
7
100
AcDbLine
 10
33.430584
 20
13.676859
 30
0.0
 11
34.192152
 21
13.676859
 31
0.0
  0
LINE
  5
1b6
100
AcDbEntity
  8
0
 62
7
100
AcDbLine
 10
34.192152
 20
13.676859
 30
0.0
 11
34.953724
 21
13.676859
 31
0.0
  0
LINE
  5
1b7
100
AcDbEntity
  8
0
 62
7
100
AcDbLine
 10
34.953724
 20
13.676859
 30
0.0
 11
34.953724
 21
12.161572
 31
0.0
  0
LINE
  5
1b8
100
AcDbEntity
  8
0
 62
7
100
AcDbLine
 10
34.953724
 20
12.161572
 30
0.0
 11
34.953724
 21
10.646284
 31
0.0
  0
LINE
  5
1b9
100
AcDbEntity
  8
0
 62
7
100
AcDbLine
 10
34.953724
 20
10.646284
 30
0.0
 11
36.476861
 21
10.646284
 31
0.0
  0
LINE
  5
1ba
100
AcDbEntity
  8
0
 62
7
100
AcDbLine
 10
36.476861
 20
10.646284
 30
0.0
 11
38.000001
 21
10.646284
 31
0.0
  0
LINE
  5
1bb
100
AcDbEntity
  8
0
 62
7
100
AcDbLine
 10
38.000001
 20
10.646284
 30
0.0
 11
38.000001
 21
9.884710
 31
0.0
  0
LINE
  5
1bc
100
AcDbEntity
  8
0
 62
7
100
AcDbLine
 10
38.000001
 20
9.884710
 30
0.0
 11
38.000001
 21
9.123138
 31
0.0
  0
LINE
  5
1bd
100
AcDbEntity
  8
0
 62
7
100
AcDbLine
 10
38.000001
 20
9.123138
 30
0.0
 11
35.715292
 21
9.123138
 31
0.0
  0
LINE
  5
1be
100
AcDbEntity
  8
0
 62
7
100
AcDbLine
 10
35.715292
 20
9.123138
 30
0.0
 11
33.430584
 21
9.123138
 31
0.0
  0
LINE
  5
1bf
100
AcDbEntity
  8
0
 62
7
100
AcDbLine
 10
33.430584
 20
9.123138
 30
0.0
 11
33.430584
 21
8.361572
 31
0.0
  0
LINE
  5
1c0
100
AcDbEntity
  8
0
 62
7
100
AcDbLine
 10
33.430584
 20
8.361572
 30
0.0
 11
33.430584
 21
7.600001
 31
0.0
  0
LINE
  5
1c1
100
AcDbEntity
  8
0
 62
7
100
AcDbLine
 10
33.430584
 20
7.600001
 30
0.0
 11
35.715292
 21
7.600001
 31
0.0
  0
LINE
  5
1c2
100
AcDbEntity
  8
0
 62
7
100
AcDbLine
 10
35.715292
 20
7.600001
 30
0.0
 11
38.000001
 21
7.600001
 31
0.0
  0
LINE
  5
1c3
100
AcDbEntity
  8
0
 62
7
100
AcDbLine
 10
38.000001
 20
7.600001
 30
0.0
 11
38.000001
 21
3.799997
 31
0.0
  0
LINE
  5
1c4
100
AcDbEntity
  8
0
 62
7
100
AcDbLine
 10
38.000001
 20
3.799997
 30
0.0
 11
38.000001
 21
-0.000002
 31
0.0
  0
LINE
  5
1c5
100
AcDbEntity
  8
0
 62
7
100
AcDbLine
 10
38.000001
 20
-0.000002
 30
0.0
 11
32.676865
 21
-0.000002
 31
0.0
  0
LINE
  5
1c6
100
AcDbEntity
  8
0
 62
7
100
AcDbLine
 10
32.676865
 20
-0.000002
 30
0.0
 11
27.353723
 21
-0.000002
 31
0.0
  0
LINE
  5
1c7
100
AcDbEntity
  8
0
 62
7
100
AcDbLine
 10
27.353723
 20
-0.000002
 30
0.0
 11
27.353723
 21
0.761569
 31
0.0
  0
LINE
  5
1c8
100
AcDbEntity
  8
0
 62
7
100
AcDbLine
 10
27.353723
 20
0.761569
 30
0.0
 11
27.353723
 21
1.523141
 31
0.0
  0
LINE
  5
1c9
100
AcDbEntity
  8
0
 62
7
100
AcDbLine
 10
27.353723
 20
1.523141
 30
0.0
 11
25.838432
 21
1.523141
 31
0.0
  0
LINE
  5
1ca
100
AcDbEntity
  8
0
 62
7
100
AcDbLine
 10
25.838432
 20
1.523141
 30
0.0
 11
24.323145
 21
1.523141
 31
0.0
  0
LINE
  5
1cb
100
AcDbEntity
  8
0
 62
7
100
AcDbLine
 10
24.323145
 20
1.523141
 30
0.0
 11
24.323145
 21
0.761569
 31
0.0
  0
LINE
  5
1cc
100
AcDbEntity
  8
0
 62
7
100
AcDbLine
 10
24.323145
 20
0.761569
 30
0.0
 11
24.323145
 21
-0.000002
 31
0.0
  0
LINE
  5
1cd
100
AcDbEntity
  8
0
 62
7
100
AcDbLine
 10
24.323145
 20
-0.000002
 30
0.0
 11
22.800003
 21
-0.000002
 31
0.0
  0
LINE
  5
1ce
100
AcDbEntity
  8
0
 62
7
100
AcDbLine
 10
22.800003
 20
-0.000002
 30
0.0
 11
21.276864
 21
-0.000002
 31
0.0
  0
LINE
  5
1cf
100
AcDbEntity
  8
0
 62
7
100
AcDbLine
 10
21.276864
 20
-0.000002
 30
0.0
 11
21.276864
 21
0.761569
 31
0.0
  0
LINE
  5
1d0
100
AcDbEntity
  8
0
 62
7
100
AcDbLine
 10
21.276864
 20
0.761569
 30
0.0
 11
21.276864
 21
1.523141
 31
0.0
  0
LINE
  5
1d1
100
AcDbEntity
  8
0
 62
7
100
AcDbLine
 10
21.276864
 20
1.523141
 30
0.0
 11
20.515294
 21
1.523141
 31
0.0
  0
LINE
  5
1d2
100
AcDbEntity
  8
0
 62
7
100
AcDbLine
 10
20.515294
 20
1.523141
 30
0.0
 11
19.753724
 21
1.523141
 31
0.0
  0
LINE
  5
1d3
100
AcDbEntity
  8
0
 62
7
100
AcDbLine
 10
19.753724
 20
1.523141
 30
0.0
 11
19.753724
 21
0.761569
 31
0.0
  0
LINE
  5
1d4
100
AcDbEntity
  8
0
 62
7
100
AcDbLine
 10
19.753724
 20
0.761569
 30
0.0
 11
19.753724
 21
-0.000002
 31
0.0
  0
LINE
  5
1d5
100
AcDbEntity
  8
0
 62
7
100
AcDbLine
 10
19.753724
 20
-0.000002
 30
0.0
 11
19.000005
 21
-0.000002
 31
0.0
  0
LINE
  5
1d6
100
AcDbEntity
  8
0
 62
7
100
AcDbLine
 10
19.000005
 20
-0.000002
 30
0.0
 11
18.246283
 21
-0.000002
 31
0.0
  0
LINE
  5
1d7
100
AcDbEntity
  8
0
 62
7
100
AcDbLine
 10
18.246283
 20
-0.000002
 30
0.0
 11
18.246283
 21
1.523141
 31
0.0
  0
LINE
  5
1d8
100
AcDbEntity
  8
0
 62
7
100
AcDbLine
 10
18.246283
 20
1.523141
 30
0.0
 11
18.246283
 21
3.046281
 31
0.0
  0
LINE
  5
1d9
100
AcDbEntity
  8
0
 62
7
100
AcDbLine
 10
18.246283
 20
3.046281
 30
0.0
 11
19.000005
 21
3.046281
 31
0.0
  0
LINE
  5
1da
100
AcDbEntity
  8
0
 62
7
100
AcDbLine
 10
19.000005
 20
3.046281
 30
0.0
 11
19.753724
 21
3.046281
 31
0.0
  0
LINE
  5
1db
100
AcDbEntity
  8
0
 62
7
100
AcDbLine
 10
19.753724
 20
3.046281
 30
0.0
 11
19.753724
 21
3.807850
 31
0.0
  0
LINE
  5
1dc
100
AcDbEntity
  8
0
 62
7
100
AcDbLine
 10
19.753724
 20
3.807850
 30
0.0
 11
19.753724
 21
4.569418
 31
0.0
  0
LINE
  5
1dd
100
AcDbEntity
  8
0
 62
7
100
AcDbLine
 10
19.753724
 20
4.569418
 30
0.0
 11
19.000005
 21
4.569418
 31
0.0
  0
LINE
  5
1de
100
AcDbEntity
  8
0
 62
7
100
AcDbLine
 10
19.000005
 20
4.569418
 30
0.0
 11
18.246283
 21
4.569418
 31
0.0
  0
LINE
  5
1df
100
AcDbEntity
  8
0
 62
7
100
AcDbLine
 10
18.246283
 20
4.569418
 30
0.0
 11
18.246283
 21
5.323137
 31
0.0
  0
LINE
  5
1e0
100
AcDbEntity
  8
0
 62
7
100
AcDbLine
 10
18.246283
 20
5.323137
 30
0.0
 11
18.246283
 21
6.076861
 31
0.0
  0
LINE
  5
1e1
100
AcDbEntity
  8
0
 62
7
100
AcDbLine
 10
18.246283
 20
6.076861
 30
0.0
 11
17.484713
 21
6.076861
 31
0.0
  0
LINE
  5
1e2
100
AcDbEntity
  8
0
 62
7
100
AcDbLine
 10
17.484713
 20
6.076861
 30
0.0
 11
16.723144
 21
6.076861
 31
0.0
  0
LINE
  5
1e3
100
AcDbEntity
  8
0
 62
7
100
AcDbLine
 10
16.723144
 20
6.076861
 30
0.0
 11
16.723144
 21
6.838427
 31
0.0
  0
LINE
  5
1e4
100
AcDbEntity
  8
0
 62
7
100
AcDbLine
 10
16.723144
 20
6.838427
 30
0.0
 11
16.723144
 21
7.600001
 31
0.0
  0
LINE
  5
1e5
100
AcDbEntity
  8
0
 62
7
100
AcDbLine
 10
16.723144
 20
7.600001
 30
0.0
 11
15.961574
 21
7.600001
 31
0.0
  0
LINE
  5
1e6
100
AcDbEntity
  8
0
 62
7
100
AcDbLine
 10
15.961574
 20
7.600001
 30
0.0
 11
15.200005
 21
7.600001
 31
0.0
  0
LINE
  5
1e7
100
AcDbEntity
  8
0
 62
7
100
AcDbLine
 10
15.200005
 20
7.600001
 30
0.0
 11
15.200005
 21
6.084706
 31
0.0
  0
LINE
  5
1e8
100
AcDbEntity
  8
0
 62
7
100
AcDbLine
 10
15.200005
 20
6.084706
 30
0.0
 11
15.200005
 21
4.569418
 31
0.0
  0
LINE
  5
1e9
100
AcDbEntity
  8
0
 62
7
100
AcDbLine
 10
15.200005
 20
4.569418
 30
0.0
 11
14.438435
 21
4.569418
 31
0.0
  0
LINE
  5
1ea
100
AcDbEntity
  8
0
 62
7
100
AcDbLine
 10
14.438435
 20
4.569418
 30
0.0
 11
13.676865
 21
4.569418
 31
0.0
  0
LINE
  5
1eb
100
AcDbEntity
  8
0
 62
7
100
AcDbLine
 10
13.676865
 20
4.569418
 30
0.0
 11
13.676865
 21
2.284709
 31
0.0
  0
LINE
  5
1ec
100
AcDbEntity
  8
0
 62
7
100
AcDbLine
 10
13.676865
 20
2.284709
 30
0.0
 11
13.676865
 21
-0.000002
 31
0.0
  0
LINE
  5
1ed
100
AcDbEntity
  8
0
 62
7
100
AcDbLine
 10
13.676865
 20
-0.000002
 30
0.0
 11
12.923143
 21
-0.000002
 31
0.0
  0
LINE
  5
1ee
100
AcDbEntity
  8
0
 62
7
100
AcDbLine
 10
12.923143
 20
-0.000002
 30
0.0
 11
12.169425
 21
-0.000002
 31
0.0
  0
LINE
  5
1ef
100
AcDbEntity
  8
0
 62
7
100
AcDbLine
 10
12.169425
 20
-0.000002
 30
0.0
 11
12.169425
 21
3.799997
 31
0.0
  0
LINE
  5
1f0
100
AcDbEntity
  8
0
 62
7
100
AcDbLine
 10
22.800003
 20
2.284709
 30
0.0
 11
22.800003
 21
3.046281
 31
0.0
  0
LINE
  5
1f1
100
AcDbEntity
  8
0
 62
7
100
AcDbLine
 10
22.800003
 20
3.046281
 30
0.0
 11
23.561575
 21
3.046281
 31
0.0
  0
LINE
  5
1f2
100
AcDbEntity
  8
0
 62
7
100
AcDbLine
 10
23.561575
 20
3.046281
 30
0.0
 11
24.323145
 21
3.046281
 31
0.0
  0
LINE
  5
1f3
100
AcDbEntity
  8
0
 62
7
100
AcDbLine
 10
24.323145
 20
3.046281
 30
0.0
 11
24.323145
 21
3.807850
 31
0.0
  0
LINE
  5
1f4
100
AcDbEntity
  8
0
 62
7
100
AcDbLine
 10
24.323145
 20
3.807850
 30
0.0
 11
24.323145
 21
4.569418
 31
0.0
  0
LINE
  5
1f5
100
AcDbEntity
  8
0
 62
7
100
AcDbLine
 10
24.323145
 20
4.569418
 30
0.0
 11
23.561575
 21
4.569418
 31
0.0
  0
LINE
  5
1f6
100
AcDbEntity
  8
0
 62
7
100
AcDbLine
 10
23.561575
 20
4.569418
 30
0.0
 11
22.800003
 21
4.569418
 31
0.0
  0
LINE
  5
1f7
100
AcDbEntity
  8
0
 62
7
100
AcDbLine
 10
22.800003
 20
4.569418
 30
0.0
 11
22.800003
 21
6.084706
 31
0.0
  0
LINE
  5
1f8
100
AcDbEntity
  8
0
 62
7
100
AcDbLine
 10
22.800003
 20
6.084706
 30
0.0
 11
22.800003
 21
7.600001
 31
0.0
  0
LINE
  5
1f9
100
AcDbEntity
  8
0
 62
7
100
AcDbLine
 10
22.800003
 20
7.600001
 30
0.0
 11
23.561575
 21
7.600001
 31
0.0
  0
LINE
  5
1fa
100
AcDbEntity
  8
0
 62
7
100
AcDbLine
 10
23.561575
 20
7.600001
 30
0.0
 11
24.323145
 21
7.600001
 31
0.0
  0
LINE
  5
1fb
100
AcDbEntity
  8
0
 62
7
100
AcDbLine
 10
24.323145
 20
7.600001
 30
0.0
 11
24.323145
 21
9.123138
 31
0.0
  0
LINE
  5
1fc
100
AcDbEntity
  8
0
 62
7
100
AcDbLine
 10
24.323145
 20
9.123138
 30
0.0
 11
24.323145
 21
10.646284
 31
0.0
  0
LINE
  5
1fd
100
AcDbEntity
  8
0
 62
7
100
AcDbLine
 10
24.323145
 20
10.646284
 30
0.0
 11
22.800003
 21
10.646284
 31
0.0
  0
LINE
  5
1fe
100
AcDbEntity
  8
0
 62
7
100
AcDbLine
 10
22.800003
 20
10.646284
 30
0.0
 11
21.276864
 21
10.646284
 31
0.0
  0
LINE
  5
1ff
100
AcDbEntity
  8
0
 62
7
100
AcDbLine
 10
21.276864
 20
10.646284
 30
0.0
 11
21.276864
 21
9.884710
 31
0.0
  0
LINE
  5
200
100
AcDbEntity
  8
0
 62
7
100
AcDbLine
 10
21.276864
 20
9.884710
 30
0.0
 11
21.276864
 21
9.123138
 31
0.0
  0
LINE
  5
201
100
AcDbEntity
  8
0
 62
7
100
AcDbLine
 10
21.276864
 20
9.123138
 30
0.0
 11
19.761575
 21
9.123138
 31
0.0
  0
LINE
  5
202
100
AcDbEntity
  8
0
 62
7
100
AcDbLine
 10
19.761575
 20
9.123138
 30
0.0
 11
18.246283
 21
9.123138
 31
0.0
  0
LINE
  5
203
100
AcDbEntity
  8
0
 62
7
100
AcDbLine
 10
18.246283
 20
9.123138
 30
0.0
 11
18.246283
 21
7.600001
 31
0.0
  0
LINE
  5
204
100
AcDbEntity
  8
0
 62
7
100
AcDbLine
 10
18.246283
 20
7.600001
 30
0.0
 11
18.246283
 21
6.076861
 31
0.0
  0
LINE
  5
205
100
AcDbEntity
  8
0
 62
7
100
AcDbLine
 10
18.246283
 20
6.076861
 30
0.0
 11
19.761575
 21
6.076861
 31
0.0
  0
LINE
  5
206
100
AcDbEntity
  8
0
 62
7
100
AcDbLine
 10
19.761575
 20
6.076861
 30
0.0
 11
21.276864
 21
6.076861
 31
0.0
  0
LINE
  5
207
100
AcDbEntity
  8
0
 62
7
100
AcDbLine
 10
21.276864
 20
6.076861
 30
0.0
 11
21.276864
 21
5.323137
 31
0.0
  0
LINE
  5
208
100
AcDbEntity
  8
0
 62
7
100
AcDbLine
 10
21.276864
 20
5.323137
 30
0.0
 11
21.276864
 21
4.569418
 31
0.0
  0
LINE
  5
209
100
AcDbEntity
  8
0
 62
7
100
AcDbLine
 10
21.276864
 20
4.569418
 30
0.0
 11
22.038433
 21
4.569418
 31
0.0
  0
LINE
  5
20a
100
AcDbEntity
  8
0
 62
7
100
AcDbLine
 10
22.038433
 20
4.569418
 30
0.0
 11
22.800003
 21
4.569418
 31
0.0
  0
LINE
  5
20b
100
AcDbEntity
  8
0
 62
7
100
AcDbLine
 10
22.800003
 20
4.569418
 30
0.0
 11
22.800003
 21
3.807850
 31
0.0
  0
LINE
  5
20c
100
AcDbEntity
  8
0
 62
7
100
AcDbLine
 10
22.800003
 20
3.807850
 30
0.0
 11
22.800003
 21
3.046281
 31
0.0
  0
LINE
  5
20d
100
AcDbEntity
  8
0
 62
7
100
AcDbLine
 10
22.800003
 20
3.046281
 30
0.0
 11
22.038433
 21
3.046281
 31
0.0
  0
LINE
  5
20e
100
AcDbEntity
  8
0
 62
7
100
AcDbLine
 10
22.038433
 20
3.046281
 30
0.0
 11
21.276864
 21
3.046281
 31
0.0
  0
LINE
  5
20f
100
AcDbEntity
  8
0
 62
7
100
AcDbLine
 10
21.276864
 20
3.046281
 30
0.0
 11
21.276864
 21
2.284709
 31
0.0
  0
LINE
  5
210
100
AcDbEntity
  8
0
 62
7
100
AcDbLine
 10
21.276864
 20
2.284709
 30
0.0
 11
21.276864
 21
1.523141
 31
0.0
  0
LINE
  5
211
100
AcDbEntity
  8
0
 62
7
100
AcDbLine
 10
21.276864
 20
1.523141
 30
0.0
 11
22.038433
 21
1.523141
 31
0.0
  0
LINE
  5
212
100
AcDbEntity
  8
0
 62
7
100
AcDbLine
 10
22.038433
 20
1.523141
 30
0.0
 11
22.800003
 21
1.523141
 31
0.0
  0
LINE
  5
213
100
AcDbEntity
  8
0
 62
7
100
AcDbLine
 10
22.800003
 20
1.523141
 30
0.0
 11
22.800003
 21
2.284709
 31
0.0
  0
LINE
  5
214
100
AcDbEntity
  8
0
 62
7
100
AcDbLine
 10
36.476861
 20
3.046281
 30
0.0
 11
36.476861
 21
4.569418
 31
0.0
  0
LINE
  5
215
100
AcDbEntity
  8
0
 62
7
100
AcDbLine
 10
36.476861
 20
4.569418
 30
0.0
 11
35.715292
 21
4.569418
 31
0.0
  0
LINE
  5
216
100
AcDbEntity
  8
0
 62
7
100
AcDbLine
 10
35.715292
 20
4.569418
 30
0.0
 11
34.953724
 21
4.569418
 31
0.0
  0
LINE
  5
217
100
AcDbEntity
  8
0
 62
7
100
AcDbLine
 10
34.953724
 20
4.569418
 30
0.0
 11
34.953724
 21
3.807850
 31
0.0
  0
LINE
  5
218
100
AcDbEntity
  8
0
 62
7
100
AcDbLine
 10
34.953724
 20
3.807850
 30
0.0
 11
34.953724
 21
3.046281
 31
0.0
  0
LINE
  5
219
100
AcDbEntity
  8
0
 62
7
100
AcDbLine
 10
34.953724
 20
3.046281
 30
0.0
 11
34.192152
 21
3.046281
 31
0.0
  0
LINE
  5
21a
100
AcDbEntity
  8
0
 62
7
100
AcDbLine
 10
34.192152
 20
3.046281
 30
0.0
 11
33.430584
 21
3.046281
 31
0.0
  0
LINE
  5
21b
100
AcDbEntity
  8
0
 62
7
100
AcDbLine
 10
33.430584
 20
3.046281
 30
0.0
 11
33.430584
 21
4.561568
 31
0.0
  0
LINE
  5
21c
100
AcDbEntity
  8
0
 62
7
100
AcDbLine
 10
33.430584
 20
4.561568
 30
0.0
 11
33.430584
 21
6.076861
 31
0.0
  0
LINE
  5
21d
100
AcDbEntity
  8
0
 62
7
100
AcDbLine
 10
33.430584
 20
6.076861
 30
0.0
 11
32.676865
 21
6.076861
 31
0.0
  0
LINE
  5
21e
100
AcDbEntity
  8
0
 62
7
100
AcDbLine
 10
32.676865
 20
6.076861
 30
0.0
 11
31.923144
 21
6.076861
 31
0.0
  0
LINE
  5
21f
100
AcDbEntity
  8
0
 62
7
100
AcDbLine
 10
31.923144
 20
6.076861
 30
0.0
 11
31.923144
 21
5.323137
 31
0.0
  0
LINE
  5
220
100
AcDbEntity
  8
0
 62
7
100
AcDbLine
 10
31.923144
 20
5.323137
 30
0.0
 11
31.923144
 21
4.569418
 31
0.0
  0
LINE
  5
221
100
AcDbEntity
  8
0
 62
7
100
AcDbLine
 10
31.923144
 20
4.569418
 30
0.0
 11
31.161572
 21
4.569418
 31
0.0
  0
LINE
  5
222
100
AcDbEntity
  8
0
 62
7
100
AcDbLine
 10
31.161572
 20
4.569418
 30
0.0
 11
30.400004
 21
4.569418
 31
0.0
  0
LINE
  5
223
100
AcDbEntity
  8
0
 62
7
100
AcDbLine
 10
30.400004
 20
4.569418
 30
0.0
 11
30.400004
 21
5.323137
 31
0.0
  0
LINE
  5
224
100
AcDbEntity
  8
0
 62
7
100
AcDbLine
 10
30.400004
 20
5.323137
 30
0.0
 11
30.400004
 21
6.076861
 31
0.0
  0
LINE
  5
225
100
AcDbEntity
  8
0
 62
7
100
AcDbLine
 10
30.400004
 20
6.076861
 30
0.0
 11
29.638432
 21
6.076861
 31
0.0
  0
LINE
  5
226
100
AcDbEntity
  8
0
 62
7
100
AcDbLine
 10
29.638432
 20
6.076861
 30
0.0
 11
28.876864
 21
6.076861
 31
0.0
  0
LINE
  5
227
100
AcDbEntity
  8
0
 62
7
100
AcDbLine
 10
28.876864
 20
6.076861
 30
0.0
 11
28.876864
 21
5.323137
 31
0.0
  0
LINE
  5
228
100
AcDbEntity
  8
0
 62
7
100
AcDbLine
 10
28.876864
 20
5.323137
 30
0.0
 11
28.876864
 21
4.569418
 31
0.0
  0
LINE
  5
229
100
AcDbEntity
  8
0
 62
7
100
AcDbLine
 10
28.876864
 20
4.569418
 30
0.0
 11
27.353723
 21
4.569418
 31
0.0
  0
LINE
  5
22a
100
AcDbEntity
  8
0
 62
7
100
AcDbLine
 10
27.353723
 20
4.569418
 30
0.0
 11
25.830583
 21
4.569418
 31
0.0
  0
LINE
  5
22b
100
AcDbEntity
  8
0
 62
7
100
AcDbLine
 10
25.830583
 20
4.569418
 30
0.0
 11
25.830583
 21
3.807850
 31
0.0
  0
LINE
  5
22c
100
AcDbEntity
  8
0
 62
7
100
AcDbLine
 10
25.830583
 20
3.807850
 30
0.0
 11
25.830583
 21
3.046281
 31
0.0
  0
LINE
  5
22d
100
AcDbEntity
  8
0
 62
7
100
AcDbLine
 10
25.830583
 20
3.046281
 30
0.0
 11
27.353723
 21
3.046281
 31
0.0
  0
LINE
  5
22e
100
AcDbEntity
  8
0
 62
7
100
AcDbLine
 10
27.353723
 20
3.046281
 30
0.0
 11
28.876864
 21
3.046281
 31
0.0
  0
LINE
  5
22f
100
AcDbEntity
  8
0
 62
7
100
AcDbLine
 10
28.876864
 20
3.046281
 30
0.0
 11
28.876864
 21
3.807850
 31
0.0
  0
LINE
  5
230
100
AcDbEntity
  8
0
 62
7
100
AcDbLine
 10
28.876864
 20
3.807850
 30
0.0
 11
28.876864
 21
4.569418
 31
0.0
  0
LINE
  5
231
100
AcDbEntity
  8
0
 62
7
100
AcDbLine
 10
28.876864
 20
4.569418
 30
0.0
 11
29.638432
 21
4.569418
 31
0.0
  0
LINE
  5
232
100
AcDbEntity
  8
0
 62
7
100
AcDbLine
 10
29.638432
 20
4.569418
 30
0.0
 11
30.400004
 21
4.569418
 31
0.0
  0
LINE
  5
233
100
AcDbEntity
  8
0
 62
7
100
AcDbLine
 10
30.400004
 20
4.569418
 30
0.0
 11
30.400004
 21
3.807850
 31
0.0
  0
LINE
  5
234
100
AcDbEntity
  8
0
 62
7
100
AcDbLine
 10
30.400004
 20
3.807850
 30
0.0
 11
30.400004
 21
3.046281
 31
0.0
  0
LINE
  5
235
100
AcDbEntity
  8
0
 62
7
100
AcDbLine
 10
30.400004
 20
3.046281
 30
0.0
 11
31.915291
 21
3.046281
 31
0.0
  0
LINE
  5
236
100
AcDbEntity
  8
0
 62
7
100
AcDbLine
 10
31.915291
 20
3.046281
 30
0.0
 11
33.430584
 21
3.046281
 31
0.0
  0
LINE
  5
237
100
AcDbEntity
  8
0
 62
7
100
AcDbLine
 10
33.430584
 20
3.046281
 30
0.0
 11
33.430584
 21
2.284709
 31
0.0
  0
LINE
  5
238
100
AcDbEntity
  8
0
 62
7
100
AcDbLine
 10
33.430584
 20
2.284709
 30
0.0
 11
33.430584
 21
1.523141
 31
0.0
  0
LINE
  5
239
100
AcDbEntity
  8
0
 62
7
100
AcDbLine
 10
33.430584
 20
1.523141
 30
0.0
 11
34.953724
 21
1.523141
 31
0.0
  0
LINE
  5
23a
100
AcDbEntity
  8
0
 62
7
100
AcDbLine
 10
34.953724
 20
1.523141
 30
0.0
 11
36.476861
 21
1.523141
 31
0.0
  0
LINE
  5
23b
100
AcDbEntity
  8
0
 62
7
100
AcDbLine
 10
36.476861
 20
1.523141
 30
0.0
 11
36.476861
 21
3.046281
 31
0.0
  0
LINE
  5
23c
100
AcDbEntity
  8
0
 62
7
100
AcDbLine
 10
30.400004
 20
9.884710
 30
0.0
 11
30.400004
 21
12.169427
 31
0.0
  0
LINE
  5
23d
100
AcDbEntity
  8
0
 62
7
100
AcDbLine
 10
30.400004
 20
12.169427
 30
0.0
 11
28.115295
 21
12.169427
 31
0.0
  0
LINE
  5
23e
100
AcDbEntity
  8
0
 62
7
100
AcDbLine
 10
28.115295
 20
12.169427
 30
0.0
 11
25.830583
 21
12.169427
 31
0.0
  0
LINE
  5
23f
100
AcDbEntity
  8
0
 62
7
100
AcDbLine
 10
25.830583
 20
12.169427
 30
0.0
 11
25.830583
 21
9.884710
 31
0.0
  0
LINE
  5
240
100
AcDbEntity
  8
0
 62
7
100
AcDbLine
 10
25.830583
 20
9.884710
 30
0.0
 11
25.830583
 21
7.600001
 31
0.0
  0
LINE
  5
241
100
AcDbEntity
  8
0
 62
7
100
AcDbLine
 10
25.830583
 20
7.600001
 30
0.0
 11
28.115295
 21
7.600001
 31
0.0
  0
LINE
  5
242
100
AcDbEntity
  8
0
 62
7
100
AcDbLine
 10
28.115295
 20
7.600001
 30
0.0
 11
30.400004
 21
7.600001
 31
0.0
  0
LINE
  5
243
100
AcDbEntity
  8
0
 62
7
100
AcDbLine
 10
30.400004
 20
7.600001
 30
0.0
 11
30.400004
 21
9.884710
 31
0.0
  0
LINE
  5
244
100
AcDbEntity
  8
0
 62
7
100
AcDbLine
 10
27.353723
 20
9.884710
 30
0.0
 11
27.353723
 21
10.646284
 31
0.0
  0
LINE
  5
245
100
AcDbEntity
  8
0
 62
7
100
AcDbLine
 10
27.353723
 20
10.646284
 30
0.0
 11
28.115295
 21
10.646284
 31
0.0
  0
LINE
  5
246
100
AcDbEntity
  8
0
 62
7
100
AcDbLine
 10
28.115295
 20
10.646284
 30
0.0
 11
28.876864
 21
10.646284
 31
0.0
  0
LINE
  5
247
100
AcDbEntity
  8
0
 62
7
100
AcDbLine
 10
28.876864
 20
10.646284
 30
0.0
 11
28.876864
 21
9.884710
 31
0.0
  0
LINE
  5
248
100
AcDbEntity
  8
0
 62
7
100
AcDbLine
 10
28.876864
 20
9.884710
 30
0.0
 11
28.876864
 21
9.123138
 31
0.0
  0
LINE
  5
249
100
AcDbEntity
  8
0
 62
7
100
AcDbLine
 10
28.876864
 20
9.123138
 30
0.0
 11
28.115295
 21
9.123138
 31
0.0
  0
LINE
  5
24a
100
AcDbEntity
  8
0
 62
7
100
AcDbLine
 10
28.115295
 20
9.123138
 30
0.0
 11
27.353723
 21
9.123138
 31
0.0
  0
LINE
  5
24b
100
AcDbEntity
  8
0
 62
7
100
AcDbLine
 10
27.353723
 20
9.123138
 30
0.0
 11
27.353723
 21
9.884710
 31
0.0
  0
LINE
  5
24c
100
AcDbEntity
  8
0
 62
7
100
AcDbLine
 10
16.723144
 20
9.884710
 30
0.0
 11
16.723144
 21
10.646284
 31
0.0
  0
LINE
  5
24d
100
AcDbEntity
  8
0
 62
7
100
AcDbLine
 10
16.723144
 20
10.646284
 30
0.0
 11
18.238435
 21
10.646284
 31
0.0
  0
LINE
  5
24e
100
AcDbEntity
  8
0
 62
7
100
AcDbLine
 10
18.238435
 20
10.646284
 30
0.0
 11
19.753724
 21
10.646284
 31
0.0
  0
LINE
  5
24f
100
AcDbEntity
  8
0
 62
7
100
AcDbLine
 10
19.753724
 20
10.646284
 30
0.0
 11
19.753724
 21
11.407855
 31
0.0
  0
LINE
  5
250
100
AcDbEntity
  8
0
 62
7
100
AcDbLine
 10
19.753724
 20
11.407855
 30
0.0
 11
19.753724
 21
12.169427
 31
0.0
  0
LINE
  5
251
100
AcDbEntity
  8
0
 62
7
100
AcDbLine
 10
19.753724
 20
12.169427
 30
0.0
 11
19.000005
 21
12.169427
 31
0.0
  0
LINE
  5
252
100
AcDbEntity
  8
0
 62
7
100
AcDbLine
 10
19.000005
 20
12.169427
 30
0.0
 11
18.246283
 21
12.169427
 31
0.0
  0
LINE
  5
253
100
AcDbEntity
  8
0
 62
7
100
AcDbLine
 10
18.246283
 20
12.169427
 30
0.0
 11
18.246283
 21
13.684716
 31
0.0
  0
LINE
  5
254
100
AcDbEntity
  8
0
 62
7
100
AcDbLine
 10
18.246283
 20
13.684716
 30
0.0
 11
18.246283
 21
15.199998
 31
0.0
  0
LINE
  5
255
100
AcDbEntity
  8
0
 62
7
100
AcDbLine
 10
18.246283
 20
15.199998
 30
0.0
 11
19.000005
 21
15.199998
 31
0.0
  0
LINE
  5
256
100
AcDbEntity
  8
0
 62
7
100
AcDbLine
 10
19.000005
 20
15.199998
 30
0.0
 11
19.753724
 21
15.199998
 31
0.0
  0
LINE
  5
257
100
AcDbEntity
  8
0
 62
7
100
AcDbLine
 10
19.753724
 20
15.199998
 30
0.0
 11
19.753724
 21
14.438428
 31
0.0
  0
LINE
  5
258
100
AcDbEntity
  8
0
 62
7
100
AcDbLine
 10
19.753724
 20
14.438428
 30
0.0
 11
19.753724
 21
13.676859
 31
0.0
  0
LINE
  5
259
100
AcDbEntity
  8
0
 62
7
100
AcDbLine
 10
19.753724
 20
13.676859
 30
0.0
 11
21.276864
 21
13.676859
 31
0.0
  0
LINE
  5
25a
100
AcDbEntity
  8
0
 62
7
100
AcDbLine
 10
21.276864
 20
13.676859
 30
0.0
 11
22.800003
 21
13.676859
 31
0.0
  0
LINE
  5
25b
100
AcDbEntity
  8
0
 62
7
100
AcDbLine
 10
22.800003
 20
13.676859
 30
0.0
 11
22.800003
 21
12.923140
 31
0.0
  0
LINE
  5
25c
100
AcDbEntity
  8
0
 62
7
100
AcDbLine
 10
22.800003
 20
12.923140
 30
0.0
 11
22.800003
 21
12.169427
 31
0.0
  0
LINE
  5
25d
100
AcDbEntity
  8
0
 62
7
100
AcDbLine
 10
22.800003
 20
12.169427
 30
0.0
 11
23.561575
 21
12.169427
 31
0.0
  0
LINE
  5
25e
100
AcDbEntity
  8
0
 62
7
100
AcDbLine
 10
23.561575
 20
12.169427
 30
0.0
 11
24.323145
 21
12.169427
 31
0.0
  0
LINE
  5
25f
100
AcDbEntity
  8
0
 62
7
100
AcDbLine
 10
24.323145
 20
12.169427
 30
0.0
 11
24.323145
 21
12.923140
 31
0.0
  0
LINE
  5
260
100
AcDbEntity
  8
0
 62
7
100
AcDbLine
 10
24.323145
 20
12.923140
 30
0.0
 11
24.323145
 21
13.676859
 31
0.0
  0
LINE
  5
261
100
AcDbEntity
  8
0
 62
7
100
AcDbLine
 10
24.323145
 20
13.676859
 30
0.0
 11
23.561575
 21
13.676859
 31
0.0
  0
LINE
  5
262
100
AcDbEntity
  8
0
 62
7
100
AcDbLine
 10
23.561575
 20
13.676859
 30
0.0
 11
22.800003
 21
13.676859
 31
0.0
  0
LINE
  5
263
100
AcDbEntity
  8
0
 62
7
100
AcDbLine
 10
22.800003
 20
13.676859
 30
0.0
 11
22.800003
 21
14.438428
 31
0.0
  0
LINE
  5
264
100
AcDbEntity
  8
0
 62
7
100
AcDbLine
 10
22.800003
 20
14.438428
 30
0.0
 11
22.800003
 21
15.199998
 31
0.0
  0
LINE
  5
265
100
AcDbEntity
  8
0
 62
7
100
AcDbLine
 10
22.800003
 20
15.199998
 30
0.0
 11
21.276864
 21
15.199998
 31
0.0
  0
LINE
  5
266
100
AcDbEntity
  8
0
 62
7
100
AcDbLine
 10
21.276864
 20
15.199998
 30
0.0
 11
19.753724
 21
15.199998
 31
0.0
  0
LINE
  5
267
100
AcDbEntity
  8
0
 62
7
100
AcDbLine
 10
19.753724
 20
15.199998
 30
0.0
 11
19.753724
 21
15.961572
 31
0.0
  0
LINE
  5
268
100
AcDbEntity
  8
0
 62
7
100
AcDbLine
 10
19.753724
 20
15.961572
 30
0.0
 11
19.753724
 21
16.723144
 31
0.0
  0
LINE
  5
269
100
AcDbEntity
  8
0
 62
7
100
AcDbLine
 10
19.753724
 20
16.723144
 30
0.0
 11
19.000005
 21
16.723144
 31
0.0
  0
LINE
  5
26a
100
AcDbEntity
  8
0
 62
7
100
AcDbLine
 10
19.000005
 20
16.723144
 30
0.0
 11
18.246283
 21
16.723144
 31
0.0
  0
LINE
  5
26b
100
AcDbEntity
  8
0
 62
7
100
AcDbLine
 10
18.246283
 20
16.723144
 30
0.0
 11
18.246283
 21
17.484714
 31
0.0
  0
LINE
  5
26c
100
AcDbEntity
  8
0
 62
7
100
AcDbLine
 10
18.246283
 20
17.484714
 30
0.0
 11
18.246283
 21
18.246286
 31
0.0
  0
LINE
  5
26d
100
AcDbEntity
  8
0
 62
7
100
AcDbLine
 10
18.246283
 20
18.246286
 30
0.0
 11
17.484713
 21
18.246286
 31
0.0
  0
LINE
  5
26e
100
AcDbEntity
  8
0
 62
7
100
AcDbLine
 10
17.484713
 20
18.246286
 30
0.0
 11
16.723144
 21
18.246286
 31
0.0
  0
LINE
  5
26f
100
AcDbEntity
  8
0
 62
7
100
AcDbLine
 10
16.723144
 20
18.246286
 30
0.0
 11
16.723144
 21
18.999999
 31
0.0
  0
LINE
  5
270
100
AcDbEntity
  8
0
 62
7
100
AcDbLine
 10
16.723144
 20
18.999999
 30
0.0
 11
16.723144
 21
19.753721
 31
0.0
  0
LINE
  5
271
100
AcDbEntity
  8
0
 62
7
100
AcDbLine
 10
16.723144
 20
19.753721
 30
0.0
 11
15.961574
 21
19.753721
 31
0.0
  0
LINE
  5
272
100
AcDbEntity
  8
0
 62
7
100
AcDbLine
 10
15.961574
 20
19.753721
 30
0.0
 11
15.200005
 21
19.753721
 31
0.0
  0
LINE
  5
273
100
AcDbEntity
  8
0
 62
7
100
AcDbLine
 10
15.200005
 20
19.753721
 30
0.0
 11
15.200005
 21
18.999999
 31
0.0
  0
LINE
  5
274
100
AcDbEntity
  8
0
 62
7
100
AcDbLine
 10
15.200005
 20
18.999999
 30
0.0
 11
15.200005
 21
18.246286
 31
0.0
  0
LINE
  5
275
100
AcDbEntity
  8
0
 62
7
100
AcDbLine
 10
15.200005
 20
18.246286
 30
0.0
 11
14.438435
 21
18.246286
 31
0.0
  0
LINE
  5
276
100
AcDbEntity
  8
0
 62
7
100
AcDbLine
 10
14.438435
 20
18.246286
 30
0.0
 11
13.676865
 21
18.246286
 31
0.0
  0
LINE
  5
277
100
AcDbEntity
  8
0
 62
7
100
AcDbLine
 10
13.676865
 20
18.246286
 30
0.0
 11
13.676865
 21
17.484714
 31
0.0
  0
LINE
  5
278
100
AcDbEntity
  8
0
 62
7
100
AcDbLine
 10
13.676865
 20
17.484714
 30
0.0
 11
13.676865
 21
16.723144
 31
0.0
  0
LINE
  5
279
100
AcDbEntity
  8
0
 62
7
100
AcDbLine
 10
13.676865
 20
16.723144
 30
0.0
 11
12.923143
 21
16.723144
 31
0.0
  0
LINE
  5
27a
100
AcDbEntity
  8
0
 62
7
100
AcDbLine
 10
12.923143
 20
16.723144
 30
0.0
 11
12.169425
 21
16.723144
 31
0.0
  0
LINE
  5
27b
100
AcDbEntity
  8
0
 62
7
100
AcDbLine
 10
12.169425
 20
16.723144
 30
0.0
 11
12.169425
 21
18.999999
 31
0.0
  0
LINE
  5
27c
100
AcDbEntity
  8
0
 62
7
100
AcDbLine
 10
12.169425
 20
18.999999
 30
0.0
 11
12.169425
 21
21.276861
 31
0.0
  0
LINE
  5
27d
100
AcDbEntity
  8
0
 62
7
100
AcDbLine
 10
12.169425
 20
21.276861
 30
0.0
 11
10.646285
 21
21.276861
 31
0.0
  0
LINE
  5
27e
100
AcDbEntity
  8
0
 62
7
100
AcDbLine
 10
10.646285
 20
21.276861
 30
0.0
 11
9.123146
 21
21.276861
 31
0.0
  0
LINE
  5
27f
100
AcDbEntity
  8
0
 62
7
100
AcDbLine
 10
9.123146
 20
21.276861
 30
0.0
 11
9.123146
 21
22.038436
 31
0.0
  0
LINE
  5
280
100
AcDbEntity
  8
0
 62
7
100
AcDbLine
 10
9.123146
 20
22.038436
 30
0.0
 11
9.123146
 21
22.800006
 31
0.0
  0
LINE
  5
281
100
AcDbEntity
  8
0
 62
7
100
AcDbLine
 10
9.123146
 20
22.800006
 30
0.0
 11
9.884715
 21
22.800006
 31
0.0
  0
LINE
  5
282
100
AcDbEntity
  8
0
 62
7
100
AcDbLine
 10
9.884715
 20
22.800006
 30
0.0
 11
10.646285
 21
22.800006
 31
0.0
  0
LINE
  5
283
100
AcDbEntity
  8
0
 62
7
100
AcDbLine
 10
10.646285
 20
22.800006
 30
0.0
 11
10.646285
 21
23.561575
 31
0.0
  0
LINE
  5
284
100
AcDbEntity
  8
0
 62
7
100
AcDbLine
 10
10.646285
 20
23.561575
 30
0.0
 11
10.646285
 21
24.323145
 31
0.0
  0
LINE
  5
285
100
AcDbEntity
  8
0
 62
7
100
AcDbLine
 10
10.646285
 20
24.323145
 30
0.0
 11
9.884715
 21
24.323145
 31
0.0
  0
LINE
  5
286
100
AcDbEntity
  8
0
 62
7
100
AcDbLine
 10
9.884715
 20
24.323145
 30
0.0
 11
9.123146
 21
24.323145
 31
0.0
  0
LINE
  5
287
100
AcDbEntity
  8
0
 62
7
100
AcDbLine
 10
9.123146
 20
24.323145
 30
0.0
 11
9.123146
 21
23.561575
 31
0.0
  0
LINE
  5
288
100
AcDbEntity
  8
0
 62
7
100
AcDbLine
 10
9.123146
 20
23.561575
 30
0.0
 11
9.123146
 21
22.800006
 31
0.0
  0
LINE
  5
289
100
AcDbEntity
  8
0
 62
7
100
AcDbLine
 10
9.123146
 20
22.800006
 30
0.0
 11
8.361573
 21
22.800006
 31
0.0
  0
LINE
  5
28a
100
AcDbEntity
  8
0
 62
7
100
AcDbLine
 10
8.361573
 20
22.800006
 30
0.0
 11
7.600004
 21
22.800006
 31
0.0
  0
LINE
  5
28b
100
AcDbEntity
  8
0
 62
7
100
AcDbLine
 10
7.600004
 20
22.800006
 30
0.0
 11
7.600004
 21
22.038436
 31
0.0
  0
LINE
  5
28c
100
AcDbEntity
  8
0
 62
7
100
AcDbLine
 10
7.600004
 20
22.038436
 30
0.0
 11
7.600004
 21
21.276861
 31
0.0
  0
LINE
  5
28d
100
AcDbEntity
  8
0
 62
7
100
AcDbLine
 10
7.600004
 20
21.276861
 30
0.0
 11
6.838434
 21
21.276861
 31
0.0
  0
LINE
  5
28e
100
AcDbEntity
  8
0
 62
7
100
AcDbLine
 10
6.838434
 20
21.276861
 30
0.0
 11
6.076859
 21
21.276861
 31
0.0
  0
LINE
  5
28f
100
AcDbEntity
  8
0
 62
7
100
AcDbLine
 10
6.076859
 20
21.276861
 30
0.0
 11
6.076859
 21
20.515291
 31
0.0
  0
LINE
  5
290
100
AcDbEntity
  8
0
 62
7
100
AcDbLine
 10
6.076859
 20
20.515291
 30
0.0
 11
6.076859
 21
19.753721
 31
0.0
  0
LINE
  5
291
100
AcDbEntity
  8
0
 62
7
100
AcDbLine
 10
6.076859
 20
19.753721
 30
0.0
 11
8.361573
 21
19.753721
 31
0.0
  0
LINE
  5
292
100
AcDbEntity
  8
0
 62
7
100
AcDbLine
 10
8.361573
 20
19.753721
 30
0.0
 11
10.646285
 21
19.753721
 31
0.0
  0
LINE
  5
293
100
AcDbEntity
  8
0
 62
7
100
AcDbLine
 10
10.646285
 20
19.753721
 30
0.0
 11
10.646285
 21
18.999999
 31
0.0
  0
LINE
  5
294
100
AcDbEntity
  8
0
 62
7
100
AcDbLine
 10
10.646285
 20
18.999999
 30
0.0
 11
10.646285
 21
18.246286
 31
0.0
  0
LINE
  5
295
100
AcDbEntity
  8
0
 62
7
100
AcDbLine
 10
10.646285
 20
18.246286
 30
0.0
 11
9.884715
 21
18.246286
 31
0.0
  0
LINE
  5
296
100
AcDbEntity
  8
0
 62
7
100
AcDbLine
 10
9.884715
 20
18.246286
 30
0.0
 11
9.123146
 21
18.246286
 31
0.0
  0
LINE
  5
297
100
AcDbEntity
  8
0
 62
7
100
AcDbLine
 10
9.123146
 20
18.246286
 30
0.0
 11
9.123146
 21
17.484714
 31
0.0
  0
LINE
  5
298
100
AcDbEntity
  8
0
 62
7
100
AcDbLine
 10
9.123146
 20
17.484714
 30
0.0
 11
9.123146
 21
16.723144
 31
0.0
  0
LINE
  5
299
100
AcDbEntity
  8
0
 62
7
100
AcDbLine
 10
9.123146
 20
16.723144
 30
0.0
 11
9.884715
 21
16.723144
 31
0.0
  0
LINE
  5
29a
100
AcDbEntity
  8
0
 62
7
100
AcDbLine
 10
9.884715
 20
16.723144
 30
0.0
 11
10.646285
 21
16.723144
 31
0.0
  0
LINE
  5
29b
100
AcDbEntity
  8
0
 62
7
100
AcDbLine
 10
10.646285
 20
16.723144
 30
0.0
 11
10.646285
 21
15.961572
 31
0.0
  0
LINE
  5
29c
100
AcDbEntity
  8
0
 62
7
100
AcDbLine
 10
10.646285
 20
15.961572
 30
0.0
 11
10.646285
 21
15.199998
 31
0.0
  0
LINE
  5
29d
100
AcDbEntity
  8
0
 62
7
100
AcDbLine
 10
10.646285
 20
15.199998
 30
0.0
 11
11.407855
 21
15.199998
 31
0.0
  0
LINE
  5
29e
100
AcDbEntity
  8
0
 62
7
100
AcDbLine
 10
11.407855
 20
15.199998
 30
0.0
 11
12.169425
 21
15.199998
 31
0.0
  0
LINE
  5
29f
100
AcDbEntity
  8
0
 62
7
100
AcDbLine
 10
12.169425
 20
15.199998
 30
0.0
 11
12.169425
 21
14.438428
 31
0.0
  0
LINE
  5
2a0
100
AcDbEntity
  8
0
 62
7
100
AcDbLine
 10
12.169425
 20
14.438428
 30
0.0
 11
12.169425
 21
13.676859
 31
0.0
  0
LINE
  5
2a1
100
AcDbEntity
  8
0
 62
7
100
AcDbLine
 10
12.169425
 20
13.676859
 30
0.0
 11
12.923143
 21
13.676859
 31
0.0
  0
LINE
  5
2a2
100
AcDbEntity
  8
0
 62
7
100
AcDbLine
 10
12.923143
 20
13.676859
 30
0.0
 11
13.676865
 21
13.676859
 31
0.0
  0
LINE
  5
2a3
100
AcDbEntity
  8
0
 62
7
100
AcDbLine
 10
13.676865
 20
13.676859
 30
0.0
 11
13.676865
 21
12.923140
 31
0.0
  0
LINE
  5
2a4
100
AcDbEntity
  8
0
 62
7
100
AcDbLine
 10
13.676865
 20
12.923140
 30
0.0
 11
13.676865
 21
12.169427
 31
0.0
  0
LINE
  5
2a5
100
AcDbEntity
  8
0
 62
7
100
AcDbLine
 10
13.676865
 20
12.169427
 30
0.0
 11
14.438435
 21
12.169427
 31
0.0
  0
LINE
  5
2a6
100
AcDbEntity
  8
0
 62
7
100
AcDbLine
 10
14.438435
 20
12.169427
 30
0.0
 11
15.200005
 21
12.169427
 31
0.0
  0
LINE
  5
2a7
100
AcDbEntity
  8
0
 62
7
100
AcDbLine
 10
15.200005
 20
12.169427
 30
0.0
 11
15.200005
 21
12.923140
 31
0.0
  0
LINE
  5
2a8
100
AcDbEntity
  8
0
 62
7
100
AcDbLine
 10
15.200005
 20
12.923140
 30
0.0
 11
15.200005
 21
13.676859
 31
0.0
  0
LINE
  5
2a9
100
AcDbEntity
  8
0
 62
7
100
AcDbLine
 10
15.200005
 20
13.676859
 30
0.0
 11
15.961574
 21
13.676859
 31
0.0
  0
LINE
  5
2aa
100
AcDbEntity
  8
0
 62
7
100
AcDbLine
 10
15.961574
 20
13.676859
 30
0.0
 11
16.723144
 21
13.676859
 31
0.0
  0
LINE
  5
2ab
100
AcDbEntity
  8
0
 62
7
100
AcDbLine
 10
16.723144
 20
13.676859
 30
0.0
 11
16.723144
 21
12.161572
 31
0.0
  0
LINE
  5
2ac
100
AcDbEntity
  8
0
 62
7
100
AcDbLine
 10
16.723144
 20
12.161572
 30
0.0
 11
16.723144
 21
10.646284
 31
0.0
  0
LINE
  5
2ad
100
AcDbEntity
  8
0
 62
7
100
AcDbLine
 10
16.723144
 20
10.646284
 30
0.0
 11
15.961574
 21
10.646284
 31
0.0
  0
LINE
  5
2ae
100
AcDbEntity
  8
0
 62
7
100
AcDbLine
 10
15.961574
 20
10.646284
 30
0.0
 11
15.200005
 21
10.646284
 31
0.0
  0
LINE
  5
2af
100
AcDbEntity
  8
0
 62
7
100
AcDbLine
 10
15.200005
 20
10.646284
 30
0.0
 11
15.200005
 21
9.884710
 31
0.0
  0
LINE
  5
2b0
100
AcDbEntity
  8
0
 62
7
100
AcDbLine
 10
15.200005
 20
9.884710
 30
0.0
 11
15.200005
 21
9.123138
 31
0.0
  0
LINE
  5
2b1
100
AcDbEntity
  8
0
 62
7
100
AcDbLine
 10
15.200005
 20
9.123138
 30
0.0
 11
15.961574
 21
9.123138
 31
0.0
  0
LINE
  5
2b2
100
AcDbEntity
  8
0
 62
7
100
AcDbLine
 10
15.961574
 20
9.123138
 30
0.0
 11
16.723144
 21
9.123138
 31
0.0
  0
LINE
  5
2b3
100
AcDbEntity
  8
0
 62
7
100
AcDbLine
 10
16.723144
 20
9.123138
 30
0.0
 11
16.723144
 21
9.884710
 31
0.0
  0
LINE
  5
2b4
100
AcDbEntity
  8
0
 62
7
100
AcDbLine
 10
13.676865
 20
15.961572
 30
0.0
 11
13.676865
 21
16.723144
 31
0.0
  0
LINE
  5
2b5
100
AcDbEntity
  8
0
 62
7
100
AcDbLine
 10
13.676865
 20
16.723144
 30
0.0
 11
14.438435
 21
16.723144
 31
0.0
  0
LINE
  5
2b6
100
AcDbEntity
  8
0
 62
7
100
AcDbLine
 10
14.438435
 20
16.723144
 30
0.0
 11
15.200005
 21
16.723144
 31
0.0
  0
LINE
  5
2b7
100
AcDbEntity
  8
0
 62
7
100
AcDbLine
 10
15.200005
 20
16.723144
 30
0.0
 11
15.200005
 21
17.484714
 31
0.0
  0
LINE
  5
2b8
100
AcDbEntity
  8
0
 62
7
100
AcDbLine
 10
15.200005
 20
17.484714
 30
0.0
 11
15.200005
 21
18.246286
 31
0.0
  0
LINE
  5
2b9
100
AcDbEntity
  8
0
 62
7
100
AcDbLine
 10
15.200005
 20
18.246286
 30
0.0
 11
15.961574
 21
18.246286
 31
0.0
  0
LINE
  5
2ba
100
AcDbEntity
  8
0
 62
7
100
AcDbLine
 10
15.961574
 20
18.246286
 30
0.0
 11
16.723144
 21
18.246286
 31
0.0
  0
LINE
  5
2bb
100
AcDbEntity
  8
0
 62
7
100
AcDbLine
 10
16.723144
 20
18.246286
 30
0.0
 11
16.723144
 21
16.723144
 31
0.0
  0
LINE
  5
2bc
100
AcDbEntity
  8
0
 62
7
100
AcDbLine
 10
16.723144
 20
16.723144
 30
0.0
 11
16.723144
 21
15.199998
 31
0.0
  0
LINE
  5
2bd
100
AcDbEntity
  8
0
 62
7
100
AcDbLine
 10
16.723144
 20
15.199998
 30
0.0
 11
15.200005
 21
15.199998
 31
0.0
  0
LINE
  5
2be
100
AcDbEntity
  8
0
 62
7
100
AcDbLine
 10
15.200005
 20
15.199998
 30
0.0
 11
13.676865
 21
15.199998
 31
0.0
  0
LINE
  5
2bf
100
AcDbEntity
  8
0
 62
7
100
AcDbLine
 10
13.676865
 20
15.199998
 30
0.0
 11
13.676865
 21
15.961572
 31
0.0
  0
LINE
  5
2c0
100
AcDbEntity
  8
0
 62
7
100
AcDbLine
 10
33.430584
 20
12.923140
 30
0.0
 11
33.430584
 21
13.676859
 31
0.0
  0
LINE
  5
2c1
100
AcDbEntity
  8
0
 62
7
100
AcDbLine
 10
33.430584
 20
13.676859
 30
0.0
 11
32.676865
 21
13.676859
 31
0.0
  0
LINE
  5
2c2
100
AcDbEntity
  8
0
 62
7
100
AcDbLine
 10
32.676865
 20
13.676859
 30
0.0
 11
31.923144
 21
13.676859
 31
0.0
  0
LINE
  5
2c3
100
AcDbEntity
  8
0
 62
7
100
AcDbLine
 10
31.923144
 20
13.676859
 30
0.0
 11
31.923144
 21
12.923140
 31
0.0
  0
LINE
  5
2c4
100
AcDbEntity
  8
0
 62
7
100
AcDbLine
 10
31.923144
 20
12.923140
 30
0.0
 11
31.923144
 21
12.169427
 31
0.0
  0
LINE
  5
2c5
100
AcDbEntity
  8
0
 62
7
100
AcDbLine
 10
31.923144
 20
12.169427
 30
0.0
 11
32.676865
 21
12.169427
 31
0.0
  0
LINE
  5
2c6
100
AcDbEntity
  8
0
 62
7
100
AcDbLine
 10
32.676865
 20
12.169427
 30
0.0
 11
33.430584
 21
12.169427
 31
0.0
  0
LINE
  5
2c7
100
AcDbEntity
  8
0
 62
7
100
AcDbLine
 10
33.430584
 20
12.169427
 30
0.0
 11
33.430584
 21
12.923140
 31
0.0
  0
LINE
  5
2c8
100
AcDbEntity
  8
0
 62
7
100
AcDbLine
 10
27.353723
 20
15.961572
 30
0.0
 11
27.353723
 21
16.723144
 31
0.0
  0
LINE
  5
2c9
100
AcDbEntity
  8
0
 62
7
100
AcDbLine
 10
27.353723
 20
16.723144
 30
0.0
 11
28.115295
 21
16.723144
 31
0.0
  0
LINE
  5
2ca
100
AcDbEntity
  8
0
 62
7
100
AcDbLine
 10
28.115295
 20
16.723144
 30
0.0
 11
28.876864
 21
16.723144
 31
0.0
  0
LINE
  5
2cb
100
AcDbEntity
  8
0
 62
7
100
AcDbLine
 10
28.876864
 20
16.723144
 30
0.0
 11
28.876864
 21
15.961572
 31
0.0
  0
LINE
  5
2cc
100
AcDbEntity
  8
0
 62
7
100
AcDbLine
 10
28.876864
 20
15.961572
 30
0.0
 11
28.876864
 21
15.199998
 31
0.0
  0
LINE
  5
2cd
100
AcDbEntity
  8
0
 62
7
100
AcDbLine
 10
28.876864
 20
15.199998
 30
0.0
 11
30.400004
 21
15.199998
 31
0.0
  0
LINE
  5
2ce
100
AcDbEntity
  8
0
 62
7
100
AcDbLine
 10
30.400004
 20
15.199998
 30
0.0
 11
31.923144
 21
15.199998
 31
0.0
  0
LINE
  5
2cf
100
AcDbEntity
  8
0
 62
7
100
AcDbLine
 10
31.923144
 20
15.199998
 30
0.0
 11
31.923144
 21
16.723144
 31
0.0
  0
LINE
  5
2d0
100
AcDbEntity
  8
0
 62
7
100
AcDbLine
 10
31.923144
 20
16.723144
 30
0.0
 11
31.923144
 21
18.246286
 31
0.0
  0
LINE
  5
2d1
100
AcDbEntity
  8
0
 62
7
100
AcDbLine
 10
31.923144
 20
18.246286
 30
0.0
 11
31.161572
 21
18.246286
 31
0.0
  0
LINE
  5
2d2
100
AcDbEntity
  8
0
 62
7
100
AcDbLine
 10
31.161572
 20
18.246286
 30
0.0
 11
30.400004
 21
18.246286
 31
0.0
  0
LINE
  5
2d3
100
AcDbEntity
  8
0
 62
7
100
AcDbLine
 10
30.400004
 20
18.246286
 30
0.0
 11
30.400004
 21
18.999999
 31
0.0
  0
LINE
  5
2d4
100
AcDbEntity
  8
0
 62
7
100
AcDbLine
 10
30.400004
 20
18.999999
 30
0.0
 11
30.400004
 21
19.753721
 31
0.0
  0
LINE
  5
2d5
100
AcDbEntity
  8
0
 62
7
100
AcDbLine
 10
30.400004
 20
19.753721
 30
0.0
 11
29.638432
 21
19.753721
 31
0.0
  0
LINE
  5
2d6
100
AcDbEntity
  8
0
 62
7
100
AcDbLine
 10
29.638432
 20
19.753721
 30
0.0
 11
28.876864
 21
19.753721
 31
0.0
  0
LINE
  5
2d7
100
AcDbEntity
  8
0
 62
7
100
AcDbLine
 10
28.876864
 20
19.753721
 30
0.0
 11
28.876864
 21
18.999999
 31
0.0
  0
LINE
  5
2d8
100
AcDbEntity
  8
0
 62
7
100
AcDbLine
 10
28.876864
 20
18.999999
 30
0.0
 11
28.876864
 21
18.246286
 31
0.0
  0
LINE
  5
2d9
100
AcDbEntity
  8
0
 62
7
100
AcDbLine
 10
28.876864
 20
18.246286
 30
0.0
 11
27.353723
 21
18.246286
 31
0.0
  0
LINE
  5
2da
100
AcDbEntity
  8
0
 62
7
100
AcDbLine
 10
27.353723
 20
18.246286
 30
0.0
 11
25.830583
 21
18.246286
 31
0.0
  0
LINE
  5
2db
100
AcDbEntity
  8
0
 62
7
100
AcDbLine
 10
25.830583
 20
18.246286
 30
0.0
 11
25.830583
 21
18.999999
 31
0.0
  0
LINE
  5
2dc
100
AcDbEntity
  8
0
 62
7
100
AcDbLine
 10
25.830583
 20
18.999999
 30
0.0
 11
25.830583
 21
19.753721
 31
0.0
  0
LINE
  5
2dd
100
AcDbEntity
  8
0
 62
7
100
AcDbLine
 10
25.830583
 20
19.753721
 30
0.0
 11
25.076864
 21
19.753721
 31
0.0
  0
LINE
  5
2de
100
AcDbEntity
  8
0
 62
7
100
AcDbLine
 10
25.076864
 20
19.753721
 30
0.0
 11
24.323145
 21
19.753721
 31
0.0
  0
LINE
  5
2df
100
AcDbEntity
  8
0
 62
7
100
AcDbLine
 10
24.323145
 20
19.753721
 30
0.0
 11
24.323145
 21
18.999999
 31
0.0
  0
LINE
  5
2e0
100
AcDbEntity
  8
0
 62
7
100
AcDbLine
 10
24.323145
 20
18.999999
 30
0.0
 11
24.323145
 21
18.246286
 31
0.0
  0
LINE
  5
2e1
100
AcDbEntity
  8
0
 62
7
100
AcDbLine
 10
24.323145
 20
18.246286
 30
0.0
 11
25.076864
 21
18.246286
 31
0.0
  0
LINE
  5
2e2
100
AcDbEntity
  8
0
 62
7
100
AcDbLine
 10
25.076864
 20
18.246286
 30
0.0
 11
25.830583
 21
18.246286
 31
0.0
  0
LINE
  5
2e3
100
AcDbEntity
  8
0
 62
7
100
AcDbLine
 10
25.830583
 20
18.246286
 30
0.0
 11
25.830583
 21
16.723144
 31
0.0
  0
LINE
  5
2e4
100
AcDbEntity
  8
0
 62
7
100
AcDbLine
 10
25.830583
 20
16.723144
 30
0.0
 11
25.830583
 21
15.199998
 31
0.0
  0
LINE
  5
2e5
100
AcDbEntity
  8
0
 62
7
100
AcDbLine
 10
25.830583
 20
15.199998
 30
0.0
 11
26.592152
 21
15.199998
 31
0.0
  0
LINE
  5
2e6
100
AcDbEntity
  8
0
 62
7
100
AcDbLine
 10
26.592152
 20
15.199998
 30
0.0
 11
27.353723
 21
15.199998
 31
0.0
  0
LINE
  5
2e7
100
AcDbEntity
  8
0
 62
7
100
AcDbLine
 10
27.353723
 20
15.199998
 30
0.0
 11
27.353723
 21
15.961572
 31
0.0
  0
LINE
  5
2e8
100
AcDbEntity
  8
0
 62
7
100
AcDbLine
 10
30.400004
 20
22.038436
 30
0.0
 11
30.400004
 21
22.800006
 31
0.0
  0
LINE
  5
2e9
100
AcDbEntity
  8
0
 62
7
100
AcDbLine
 10
30.400004
 20
22.800006
 30
0.0
 11
29.638432
 21
22.800006
 31
0.0
  0
LINE
  5
2ea
100
AcDbEntity
  8
0
 62
7
100
AcDbLine
 10
29.638432
 20
22.800006
 30
0.0
 11
28.876864
 21
22.800006
 31
0.0
  0
LINE
  5
2eb
100
AcDbEntity
  8
0
 62
7
100
AcDbLine
 10
28.876864
 20
22.800006
 30
0.0
 11
28.876864
 21
22.038436
 31
0.0
  0
LINE
  5
2ec
100
AcDbEntity
  8
0
 62
7
100
AcDbLine
 10
28.876864
 20
22.038436
 30
0.0
 11
28.876864
 21
21.276861
 31
0.0
  0
LINE
  5
2ed
100
AcDbEntity
  8
0
 62
7
100
AcDbLine
 10
28.876864
 20
21.276861
 30
0.0
 11
29.638432
 21
21.276861
 31
0.0
  0
LINE
  5
2ee
100
AcDbEntity
  8
0
 62
7
100
AcDbLine
 10
29.638432
 20
21.276861
 30
0.0
 11
30.400004
 21
21.276861
 31
0.0
  0
LINE
  5
2ef
100
AcDbEntity
  8
0
 62
7
100
AcDbLine
 10
30.400004
 20
21.276861
 30
0.0
 11
30.400004
 21
22.038436
 31
0.0
  0
LINE
  5
2f0
100
AcDbEntity
  8
0
 62
7
100
AcDbLine
 10
13.676865
 20
23.561575
 30
0.0
 11
13.676865
 21
24.323145
 31
0.0
  0
LINE
  5
2f1
100
AcDbEntity
  8
0
 62
7
100
AcDbLine
 10
13.676865
 20
24.323145
 30
0.0
 11
12.923143
 21
24.323145
 31
0.0
  0
LINE
  5
2f2
100
AcDbEntity
  8
0
 62
7
100
AcDbLine
 10
12.923143
 20
24.323145
 30
0.0
 11
12.169425
 21
24.323145
 31
0.0
  0
LINE
  5
2f3
100
AcDbEntity
  8
0
 62
7
100
AcDbLine
 10
12.169425
 20
24.323145
 30
0.0
 11
12.169425
 21
23.561575
 31
0.0
  0
LINE
  5
2f4
100
AcDbEntity
  8
0
 62
7
100
AcDbLine
 10
12.169425
 20
23.561575
 30
0.0
 11
12.169425
 21
22.800006
 31
0.0
  0
LINE
  5
2f5
100
AcDbEntity
  8
0
 62
7
100
AcDbLine
 10
12.169425
 20
22.800006
 30
0.0
 11
12.923143
 21
22.800006
 31
0.0
  0
LINE
  5
2f6
100
AcDbEntity
  8
0
 62
7
100
AcDbLine
 10
12.923143
 20
22.800006
 30
0.0
 11
13.676865
 21
22.800006
 31
0.0
  0
LINE
  5
2f7
100
AcDbEntity
  8
0
 62
7
100
AcDbLine
 10
13.676865
 20
22.800006
 30
0.0
 11
13.676865
 21
23.561575
 31
0.0
  0
LINE
  5
2f8
100
AcDbEntity
  8
0
 62
7
100
AcDbLine
 10
15.200005
 20
1.523141
 30
0.0
 11
15.200005
 21
3.046281
 31
0.0
  0
LINE
  5
2f9
100
AcDbEntity
  8
0
 62
7
100
AcDbLine
 10
15.200005
 20
3.046281
 30
0.0
 11
15.961574
 21
3.046281
 31
0.0
  0
LINE
  5
2fa
100
AcDbEntity
  8
0
 62
7
100
AcDbLine
 10
15.961574
 20
3.046281
 30
0.0
 11
16.723144
 21
3.046281
 31
0.0
  0
LINE
  5
2fb
100
AcDbEntity
  8
0
 62
7
100
AcDbLine
 10
16.723144
 20
3.046281
 30
0.0
 11
16.723144
 21
1.523141
 31
0.0
  0
LINE
  5
2fc
100
AcDbEntity
  8
0
 62
7
100
AcDbLine
 10
16.723144
 20
1.523141
 30
0.0
 11
16.723144
 21
-0.000002
 31
0.0
  0
LINE
  5
2fd
100
AcDbEntity
  8
0
 62
7
100
AcDbLine
 10
16.723144
 20
-0.000002
 30
0.0
 11
15.961574
 21
-0.000002
 31
0.0
  0
LINE
  5
2fe
100
AcDbEntity
  8
0
 62
7
100
AcDbLine
 10
15.961574
 20
-0.000002
 30
0.0
 11
15.200005
 21
-0.000002
 31
0.0
  0
LINE
  5
2ff
100
AcDbEntity
  8
0
 62
7
100
AcDbLine
 10
15.200005
 20
-0.000002
 30
0.0
 11
15.200005
 21
1.523141
 31
0.0
  0
LINE
  5
300
100
AcDbEntity
  8
0
 62
7
100
AcDbLine
 10
0.015704
 20
5.330990
 30
0.0
 11
0.015704
 21
10.646284
 31
0.0
  0
LINE
  5
301
100
AcDbEntity
  8
0
 62
7
100
AcDbLine
 10
0.015704
 20
10.646284
 30
0.0
 11
5.323145
 21
10.646284
 31
0.0
  0
LINE
  5
302
100
AcDbEntity
  8
0
 62
7
100
AcDbLine
 10
5.323145
 20
10.646284
 30
0.0
 11
10.630581
 21
10.646284
 31
0.0
  0
LINE
  5
303
100
AcDbEntity
  8
0
 62
7
100
AcDbLine
 10
10.630581
 20
10.646284
 30
0.0
 11
10.630581
 21
5.330990
 31
0.0
  0
LINE
  5
304
100
AcDbEntity
  8
0
 62
7
100
AcDbLine
 10
10.630581
 20
5.330990
 30
0.0
 11
10.630581
 21
0.015706
 31
0.0
  0
LINE
  5
305
100
AcDbEntity
  8
0
 62
7
100
AcDbLine
 10
10.630581
 20
0.015706
 30
0.0
 11
5.323145
 21
0.015706
 31
0.0
  0
LINE
  5
306
100
AcDbEntity
  8
0
 62
7
100
AcDbLine
 10
5.323145
 20
0.015706
 30
0.0
 11
0.015704
 21
0.015706
 31
0.0
  0
LINE
  5
307
100
AcDbEntity
  8
0
 62
7
100
AcDbLine
 10
0.015704
 20
0.015706
 30
0.0
 11
0.015704
 21
5.330990
 31
0.0
  0
LINE
  5
308
100
AcDbEntity
  8
0
 62
7
100
AcDbLine
 10
9.123146
 20
5.330990
 30
0.0
 11
9.123146
 21
9.123138
 31
0.0
  0
LINE
  5
309
100
AcDbEntity
  8
0
 62
7
100
AcDbLine
 10
9.123146
 20
9.123138
 30
0.0
 11
5.330993
 21
9.123138
 31
0.0
  0
LINE
  5
30a
100
AcDbEntity
  8
0
 62
7
100
AcDbLine
 10
5.330993
 20
9.123138
 30
0.0
 11
1.538843
 21
9.123138
 31
0.0
  0
LINE
  5
30b
100
AcDbEntity
  8
0
 62
7
100
AcDbLine
 10
1.538843
 20
9.123138
 30
0.0
 11
1.538843
 21
5.330990
 31
0.0
  0
LINE
  5
30c
100
AcDbEntity
  8
0
 62
7
100
AcDbLine
 10
1.538843
 20
5.330990
 30
0.0
 11
1.538843
 21
1.538844
 31
0.0
  0
LINE
  5
30d
100
AcDbEntity
  8
0
 62
7
100
AcDbLine
 10
1.538843
 20
1.538844
 30
0.0
 11
5.330993
 21
1.538844
 31
0.0
  0
LINE
  5
30e
100
AcDbEntity
  8
0
 62
7
100
AcDbLine
 10
5.330993
 20
1.538844
 30
0.0
 11
9.123146
 21
1.538844
 31
0.0
  0
LINE
  5
30f
100
AcDbEntity
  8
0
 62
7
100
AcDbLine
 10
9.123146
 20
1.538844
 30
0.0
 11
9.123146
 21
5.330990
 31
0.0
  0
LINE
  5
310
100
AcDbEntity
  8
0
 62
7
100
AcDbLine
 10
3.030580
 20
5.330990
 30
0.0
 11
3.030580
 21
7.615704
 31
0.0
  0
LINE
  5
311
100
AcDbEntity
  8
0
 62
7
100
AcDbLine
 10
3.030580
 20
7.615704
 30
0.0
 11
5.315289
 21
7.615704
 31
0.0
  0
LINE
  5
312
100
AcDbEntity
  8
0
 62
7
100
AcDbLine
 10
5.315289
 20
7.615704
 30
0.0
 11
7.600004
 21
7.615704
 31
0.0
  0
LINE
  5
313
100
AcDbEntity
  8
0
 62
7
100
AcDbLine
 10
7.600004
 20
7.615704
 30
0.0
 11
7.600004
 21
5.330990
 31
0.0
  0
LINE
  5
314
100
AcDbEntity
  8
0
 62
7
100
AcDbLine
 10
7.600004
 20
5.330990
 30
0.0
 11
7.600004
 21
3.046281
 31
0.0
  0
LINE
  5
315
100
AcDbEntity
  8
0
 62
7
100
AcDbLine
 10
7.600004
 20
3.046281
 30
0.0
 11
5.315289
 21
3.046281
 31
0.0
  0
LINE
  5
316
100
AcDbEntity
  8
0
 62
7
100
AcDbLine
 10
5.315289
 20
3.046281
 30
0.0
 11
3.030580
 21
3.046281
 31
0.0
  0
LINE
  5
317
100
AcDbEntity
  8
0
 62
7
100
AcDbLine
 10
3.030580
 20
3.046281
 30
0.0
 11
3.030580
 21
5.330990
 31
0.0
  0
LINE
  5
318
100
AcDbEntity
  8
0
 62
7
100
AcDbLine
 10
6.076859
 20
12.923140
 30
0.0
 11
6.076859
 21
13.676859
 31
0.0
  0
LINE
  5
319
100
AcDbEntity
  8
0
 62
7
100
AcDbLine
 10
6.076859
 20
13.676859
 30
0.0
 11
6.838434
 21
13.676859
 31
0.0
  0
LINE
  5
31a
100
AcDbEntity
  8
0
 62
7
100
AcDbLine
 10
6.838434
 20
13.676859
 30
0.0
 11
7.600004
 21
13.676859
 31
0.0
  0
LINE
  5
31b
100
AcDbEntity
  8
0
 62
7
100
AcDbLine
 10
7.600004
 20
13.676859
 30
0.0
 11
7.600004
 21
12.923140
 31
0.0
  0
LINE
  5
31c
100
AcDbEntity
  8
0
 62
7
100
AcDbLine
 10
7.600004
 20
12.923140
 30
0.0
 11
7.600004
 21
12.169427
 31
0.0
  0
LINE
  5
31d
100
AcDbEntity
  8
0
 62
7
100
AcDbLine
 10
7.600004
 20
12.169427
 30
0.0
 11
6.838434
 21
12.169427
 31
0.0
  0
LINE
  5
31e
100
AcDbEntity
  8
0
 62
7
100
AcDbLine
 10
6.838434
 20
12.169427
 30
0.0
 11
6.076859
 21
12.169427
 31
0.0
  0
LINE
  5
31f
100
AcDbEntity
  8
0
 62
7
100
AcDbLine
 10
6.076859
 20
12.169427
 30
0.0
 11
6.076859
 21
12.923140
 31
0.0
  0
LINE
  5
320
100
AcDbEntity
  8
0
 62
7
100
AcDbLine
 10
25.830583
 20
25.076864
 30
0.0
 11
25.830583
 21
25.830580
 31
0.0
  0
LINE
  5
321
100
AcDbEntity
  8
0
 62
7
100
AcDbLine
 10
25.830583
 20
25.830580
 30
0.0
 11
25.076864
 21
25.830580
 31
0.0
  0
LINE
  5
322
100
AcDbEntity
  8
0
 62
7
100
AcDbLine
 10
25.076864
 20
25.830580
 30
0.0
 11
24.323145
 21
25.830580
 31
0.0
  0
LINE
  5
323
100
AcDbEntity
  8
0
 62
7
100
AcDbLine
 10
24.323145
 20
25.830580
 30
0.0
 11
24.323145
 21
27.353719
 31
0.0
  0
LINE
  5
324
100
AcDbEntity
  8
0
 62
7
100
AcDbLine
 10
24.323145
 20
27.353719
 30
0.0
 11
24.323145
 21
28.876864
 31
0.0
  0
LINE
  5
325
100
AcDbEntity
  8
0
 62
7
100
AcDbLine
 10
24.323145
 20
28.876864
 30
0.0
 11
23.561575
 21
28.876864
 31
0.0
  0
LINE
  5
326
100
AcDbEntity
  8
0
 62
7
100
AcDbLine
 10
23.561575
 20
28.876864
 30
0.0
 11
22.800003
 21
28.876864
 31
0.0
  0
LINE
  5
327
100
AcDbEntity
  8
0
 62
7
100
AcDbLine
 10
22.800003
 20
28.876864
 30
0.0
 11
22.800003
 21
28.115295
 31
0.0
  0
LINE
  5
328
100
AcDbEntity
  8
0
 62
7
100
AcDbLine
 10
22.800003
 20
28.115295
 30
0.0
 11
22.800003
 21
27.353719
 31
0.0
  0
LINE
  5
329
100
AcDbEntity
  8
0
 62
7
100
AcDbLine
 10
22.800003
 20
27.353719
 30
0.0
 11
22.038433
 21
27.353719
 31
0.0
  0
LINE
  5
32a
100
AcDbEntity
  8
0
 62
7
100
AcDbLine
 10
22.038433
 20
27.353719
 30
0.0
 11
21.276864
 21
27.353719
 31
0.0
  0
LINE
  5
32b
100
AcDbEntity
  8
0
 62
7
100
AcDbLine
 10
21.276864
 20
27.353719
 30
0.0
 11
21.276864
 21
29.638434
 31
0.0
  0
LINE
  5
32c
100
AcDbEntity
  8
0
 62
7
100
AcDbLine
 10
21.276864
 20
29.638434
 30
0.0
 11
21.276864
 21
31.923146
 31
0.0
  0
LINE
  5
32d
100
AcDbEntity
  8
0
 62
7
100
AcDbLine
 10
21.276864
 20
31.923146
 30
0.0
 11
20.515294
 21
31.923146
 31
0.0
  0
LINE
  5
32e
100
AcDbEntity
  8
0
 62
7
100
AcDbLine
 10
20.515294
 20
31.923146
 30
0.0
 11
19.753724
 21
31.923146
 31
0.0
  0
LINE
  5
32f
100
AcDbEntity
  8
0
 62
7
100
AcDbLine
 10
19.753724
 20
31.923146
 30
0.0
 11
19.753724
 21
31.161573
 31
0.0
  0
LINE
  5
330
100
AcDbEntity
  8
0
 62
7
100
AcDbLine
 10
19.753724
 20
31.161573
 30
0.0
 11
19.753724
 21
30.400004
 31
0.0
  0
LINE
  5
331
100
AcDbEntity
  8
0
 62
7
100
AcDbLine
 10
19.753724
 20
30.400004
 30
0.0
 11
19.000005
 21
30.400004
 31
0.0
  0
LINE
  5
332
100
AcDbEntity
  8
0
 62
7
100
AcDbLine
 10
19.000005
 20
30.400004
 30
0.0
 11
18.246283
 21
30.400004
 31
0.0
  0
LINE
  5
333
100
AcDbEntity
  8
0
 62
7
100
AcDbLine
 10
18.246283
 20
30.400004
 30
0.0
 11
18.246283
 21
31.161573
 31
0.0
  0
LINE
  5
334
100
AcDbEntity
  8
0
 62
7
100
AcDbLine
 10
18.246283
 20
31.161573
 30
0.0
 11
18.246283
 21
31.923146
 31
0.0
  0
LINE
  5
335
100
AcDbEntity
  8
0
 62
7
100
AcDbLine
 10
18.246283
 20
31.923146
 30
0.0
 11
17.484713
 21
31.923146
 31
0.0
  0
LINE
  5
336
100
AcDbEntity
  8
0
 62
7
100
AcDbLine
 10
17.484713
 20
31.923146
 30
0.0
 11
16.723144
 21
31.923146
 31
0.0
  0
LINE
  5
337
100
AcDbEntity
  8
0
 62
7
100
AcDbLine
 10
16.723144
 20
31.923146
 30
0.0
 11
16.723144
 21
29.638434
 31
0.0
  0
LINE
  5
338
100
AcDbEntity
  8
0
 62
7
100
AcDbLine
 10
16.723144
 20
29.638434
 30
0.0
 11
16.723144
 21
27.353719
 31
0.0
  0
LINE
  5
339
100
AcDbEntity
  8
0
 62
7
100
AcDbLine
 10
16.723144
 20
27.353719
 30
0.0
 11
15.961574
 21
27.353719
 31
0.0
  0
LINE
  5
33a
100
AcDbEntity
  8
0
 62
7
100
AcDbLine
 10
15.961574
 20
27.353719
 30
0.0
 11
15.200005
 21
27.353719
 31
0.0
  0
LINE
  5
33b
100
AcDbEntity
  8
0
 62
7
100
AcDbLine
 10
15.200005
 20
27.353719
 30
0.0
 11
15.200005
 21
29.638434
 31
0.0
  0
LINE
  5
33c
100
AcDbEntity
  8
0
 62
7
100
AcDbLine
 10
15.200005
 20
29.638434
 30
0.0
 11
15.200005
 21
31.923146
 31
0.0
  0
LINE
  5
33d
100
AcDbEntity
  8
0
 62
7
100
AcDbLine
 10
15.200005
 20
31.923146
 30
0.0
 11
13.684713
 21
31.923146
 31
0.0
  0
LINE
  5
33e
100
AcDbEntity
  8
0
 62
7
100
AcDbLine
 10
13.684713
 20
31.923146
 30
0.0
 11
12.169425
 21
31.923146
 31
0.0
  0
LINE
  5
33f
100
AcDbEntity
  8
0
 62
7
100
AcDbLine
 10
12.169425
 20
31.923146
 30
0.0
 11
12.169425
 21
32.676859
 31
0.0
  0
LINE
  5
340
100
AcDbEntity
  8
0
 62
7
100
AcDbLine
 10
12.169425
 20
32.676859
 30
0.0
 11
12.169425
 21
33.430581
 31
0.0
  0
LINE
  5
341
100
AcDbEntity
  8
0
 62
7
100
AcDbLine
 10
12.169425
 20
33.430581
 30
0.0
 11
12.923143
 21
33.430581
 31
0.0
  0
LINE
  5
342
100
AcDbEntity
  8
0
 62
7
100
AcDbLine
 10
12.923143
 20
33.430581
 30
0.0
 11
13.676865
 21
33.430581
 31
0.0
  0
LINE
  5
343
100
AcDbEntity
  8
0
 62
7
100
AcDbLine
 10
13.676865
 20
33.430581
 30
0.0
 11
13.676865
 21
34.192151
 31
0.0
  0
LINE
  5
344
100
AcDbEntity
  8
0
 62
7
100
AcDbLine
 10
13.676865
 20
34.192151
 30
0.0
 11
13.676865
 21
34.953720
 31
0.0
  0
LINE
  5
345
100
AcDbEntity
  8
0
 62
7
100
AcDbLine
 10
13.676865
 20
34.953720
 30
0.0
 11
12.923143
 21
34.953720
 31
0.0
  0
LINE
  5
346
100
AcDbEntity
  8
0
 62
7
100
AcDbLine
 10
12.923143
 20
34.953720
 30
0.0
 11
12.169425
 21
34.953720
 31
0.0
  0
LINE
  5
347
100
AcDbEntity
  8
0
 62
7
100
AcDbLine
 10
12.169425
 20
34.953720
 30
0.0
 11
12.169425
 21
35.715290
 31
0.0
  0
LINE
  5
348
100
AcDbEntity
  8
0
 62
7
100
AcDbLine
 10
12.169425
 20
35.715290
 30
0.0
 11
12.169425
 21
36.476865
 31
0.0
  0
LINE
  5
349
100
AcDbEntity
  8
0
 62
7
100
AcDbLine
 10
12.169425
 20
36.476865
 30
0.0
 11
12.923143
 21
36.476865
 31
0.0
  0
LINE
  5
34a
100
AcDbEntity
  8
0
 62
7
100
AcDbLine
 10
12.923143
 20
36.476865
 30
0.0
 11
13.676865
 21
36.476865
 31
0.0
  0
LINE
  5
34b
100
AcDbEntity
  8
0
 62
7
100
AcDbLine
 10
13.676865
 20
36.476865
 30
0.0
 11
13.676865
 21
37.238435
 31
0.0
  0
LINE
  5
34c
100
AcDbEntity
  8
0
 62
7
100
AcDbLine
 10
13.676865
 20
37.238435
 30
0.0
 11
13.676865
 21
38.000005
 31
0.0
  0
LINE
  5
34d
100
AcDbEntity
  8
0
 62
7
100
AcDbLine
 10
13.676865
 20
38.000005
 30
0.0
 11
14.438435
 21
38.000005
 31
0.0
  0
LINE
  5
34e
100
AcDbEntity
  8
0
 62
7
100
AcDbLine
 10
14.438435
 20
38.000005
 30
0.0
 11
15.200005
 21
38.000005
 31
0.0
  0
LINE
  5
34f
100
AcDbEntity
  8
0
 62
7
100
AcDbLine
 10
15.200005
 20
38.000005
 30
0.0
 11
15.200005
 21
36.476865
 31
0.0
  0
LINE
  5
350
100
AcDbEntity
  8
0
 62
7
100
AcDbLine
 10
15.200005
 20
36.476865
 30
0.0
 11
15.200005
 21
34.953720
 31
0.0
  0
LINE
  5
351
100
AcDbEntity
  8
0
 62
7
100
AcDbLine
 10
15.200005
 20
34.953720
 30
0.0
 11
15.961574
 21
34.953720
 31
0.0
  0
LINE
  5
352
100
AcDbEntity
  8
0
 62
7
100
AcDbLine
 10
15.961574
 20
34.953720
 30
0.0
 11
16.723144
 21
34.953720
 31
0.0
  0
LINE
  5
353
100
AcDbEntity
  8
0
 62
7
100
AcDbLine
 10
16.723144
 20
34.953720
 30
0.0
 11
16.723144
 21
35.715290
 31
0.0
  0
LINE
  5
354
100
AcDbEntity
  8
0
 62
7
100
AcDbLine
 10
16.723144
 20
35.715290
 30
0.0
 11
16.723144
 21
36.476865
 31
0.0
  0
LINE
  5
355
100
AcDbEntity
  8
0
 62
7
100
AcDbLine
 10
16.723144
 20
36.476865
 30
0.0
 11
19.000005
 21
36.476865
 31
0.0
  0
LINE
  5
356
100
AcDbEntity
  8
0
 62
7
100
AcDbLine
 10
19.000005
 20
36.476865
 30
0.0
 11
21.276864
 21
36.476865
 31
0.0
  0
LINE
  5
357
100
AcDbEntity
  8
0
 62
7
100
AcDbLine
 10
21.276864
 20
36.476865
 30
0.0
 11
21.276864
 21
35.715290
 31
0.0
  0
LINE
  5
358
100
AcDbEntity
  8
0
 62
7
100
AcDbLine
 10
21.276864
 20
35.715290
 30
0.0
 11
21.276864
 21
34.953720
 31
0.0
  0
LINE
  5
359
100
AcDbEntity
  8
0
 62
7
100
AcDbLine
 10
21.276864
 20
34.953720
 30
0.0
 11
19.761575
 21
34.953720
 31
0.0
  0
LINE
  5
35a
100
AcDbEntity
  8
0
 62
7
100
AcDbLine
 10
19.761575
 20
34.953720
 30
0.0
 11
18.246283
 21
34.953720
 31
0.0
  0
LINE
  5
35b
100
AcDbEntity
  8
0
 62
7
100
AcDbLine
 10
18.246283
 20
34.953720
 30
0.0
 11
18.246283
 21
33.438435
 31
0.0
  0
LINE
  5
35c
100
AcDbEntity
  8
0
 62
7
100
AcDbLine
 10
18.246283
 20
33.438435
 30
0.0
 11
18.246283
 21
31.923146
 31
0.0
  0
LINE
  5
35d
100
AcDbEntity
  8
0
 62
7
100
AcDbLine
 10
18.246283
 20
31.923146
 30
0.0
 11
19.000005
 21
31.923146
 31
0.0
  0
LINE
  5
35e
100
AcDbEntity
  8
0
 62
7
100
AcDbLine
 10
19.000005
 20
31.923146
 30
0.0
 11
19.753724
 21
31.923146
 31
0.0
  0
LINE
  5
35f
100
AcDbEntity
  8
0
 62
7
100
AcDbLine
 10
19.753724
 20
31.923146
 30
0.0
 11
19.753724
 21
32.676859
 31
0.0
  0
LINE
  5
360
100
AcDbEntity
  8
0
 62
7
100
AcDbLine
 10
19.753724
 20
32.676859
 30
0.0
 11
19.753724
 21
33.430581
 31
0.0
  0
LINE
  5
361
100
AcDbEntity
  8
0
 62
7
100
AcDbLine
 10
19.753724
 20
33.430581
 30
0.0
 11
20.515294
 21
33.430581
 31
0.0
  0
LINE
  5
362
100
AcDbEntity
  8
0
 62
7
100
AcDbLine
 10
20.515294
 20
33.430581
 30
0.0
 11
21.276864
 21
33.430581
 31
0.0
  0
LINE
  5
363
100
AcDbEntity
  8
0
 62
7
100
AcDbLine
 10
21.276864
 20
33.430581
 30
0.0
 11
21.276864
 21
32.676859
 31
0.0
  0
LINE
  5
364
100
AcDbEntity
  8
0
 62
7
100
AcDbLine
 10
21.276864
 20
32.676859
 30
0.0
 11
21.276864
 21
31.923146
 31
0.0
  0
LINE
  5
365
100
AcDbEntity
  8
0
 62
7
100
AcDbLine
 10
21.276864
 20
31.923146
 30
0.0
 11
22.038433
 21
31.923146
 31
0.0
  0
LINE
  5
366
100
AcDbEntity
  8
0
 62
7
100
AcDbLine
 10
22.038433
 20
31.923146
 30
0.0
 11
22.800003
 21
31.923146
 31
0.0
  0
LINE
  5
367
100
AcDbEntity
  8
0
 62
7
100
AcDbLine
 10
22.800003
 20
31.923146
 30
0.0
 11
22.800003
 21
32.676859
 31
0.0
  0
LINE
  5
368
100
AcDbEntity
  8
0
 62
7
100
AcDbLine
 10
22.800003
 20
32.676859
 30
0.0
 11
22.800003
 21
33.430581
 31
0.0
  0
LINE
  5
369
100
AcDbEntity
  8
0
 62
7
100
AcDbLine
 10
22.800003
 20
33.430581
 30
0.0
 11
23.561575
 21
33.430581
 31
0.0
  0
LINE
  5
36a
100
AcDbEntity
  8
0
 62
7
100
AcDbLine
 10
23.561575
 20
33.430581
 30
0.0
 11
24.323145
 21
33.430581
 31
0.0
  0
LINE
  5
36b
100
AcDbEntity
  8
0
 62
7
100
AcDbLine
 10
24.323145
 20
33.430581
 30
0.0
 11
24.323145
 21
32.676859
 31
0.0
  0
LINE
  5
36c
100
AcDbEntity
  8
0
 62
7
100
AcDbLine
 10
24.323145
 20
32.676859
 30
0.0
 11
24.323145
 21
31.923146
 31
0.0
  0
LINE
  5
36d
100
AcDbEntity
  8
0
 62
7
100
AcDbLine
 10
24.323145
 20
31.923146
 30
0.0
 11
25.076864
 21
31.923146
 31
0.0
  0
LINE
  5
36e
100
AcDbEntity
  8
0
 62
7
100
AcDbLine
 10
25.076864
 20
31.923146
 30
0.0
 11
25.830583
 21
31.923146
 31
0.0
  0
LINE
  5
36f
100
AcDbEntity
  8
0
 62
7
100
AcDbLine
 10
25.830583
 20
31.923146
 30
0.0
 11
25.830583
 21
28.876864
 31
0.0
  0
LINE
  5
370
100
AcDbEntity
  8
0
 62
7
100
AcDbLine
 10
25.830583
 20
28.876864
 30
0.0
 11
25.830583
 21
25.830580
 31
0.0
  0
LINE
  5
371
100
AcDbEntity
  8
0
 62
7
100
AcDbLine
 10
25.830583
 20
25.830580
 30
0.0
 11
26.592152
 21
25.830580
 31
0.0
  0
LINE
  5
372
100
AcDbEntity
  8
0
 62
7
100
AcDbLine
 10
26.592152
 20
25.830580
 30
0.0
 11
27.353723
 21
25.830580
 31
0.0
  0
LINE
  5
373
100
AcDbEntity
  8
0
 62
7
100
AcDbLine
 10
27.353723
 20
25.830580
 30
0.0
 11
27.353723
 21
25.076864
 31
0.0
  0
LINE
  5
374
100
AcDbEntity
  8
0
 62
7
100
AcDbLine
 10
27.353723
 20
25.076864
 30
0.0
 11
27.353723
 21
24.323145
 31
0.0
  0
LINE
  5
375
100
AcDbEntity
  8
0
 62
7
100
AcDbLine
 10
27.353723
 20
24.323145
 30
0.0
 11
26.592152
 21
24.323145
 31
0.0
  0
LINE
  5
376
100
AcDbEntity
  8
0
 62
7
100
AcDbLine
 10
26.592152
 20
24.323145
 30
0.0
 11
25.830583
 21
24.323145
 31
0.0
  0
LINE
  5
377
100
AcDbEntity
  8
0
 62
7
100
AcDbLine
 10
25.830583
 20
24.323145
 30
0.0
 11
25.830583
 21
25.076864
 31
0.0
  0
LINE
  5
378
100
AcDbEntity
  8
0
 62
7
100
AcDbLine
 10
24.323145
 20
31.161573
 30
0.0
 11
24.323145
 21
31.923146
 31
0.0
  0
LINE
  5
379
100
AcDbEntity
  8
0
 62
7
100
AcDbLine
 10
24.323145
 20
31.923146
 30
0.0
 11
23.561575
 21
31.923146
 31
0.0
  0
LINE
  5
37a
100
AcDbEntity
  8
0
 62
7
100
AcDbLine
 10
23.561575
 20
31.923146
 30
0.0
 11
22.800003
 21
31.923146
 31
0.0
  0
LINE
  5
37b
100
AcDbEntity
  8
0
 62
7
100
AcDbLine
 10
22.800003
 20
31.923146
 30
0.0
 11
22.800003
 21
31.161573
 31
0.0
  0
LINE
  5
37c
100
AcDbEntity
  8
0
 62
7
100
AcDbLine
 10
22.800003
 20
31.161573
 30
0.0
 11
22.800003
 21
30.400004
 31
0.0
  0
LINE
  5
37d
100
AcDbEntity
  8
0
 62
7
100
AcDbLine
 10
22.800003
 20
30.400004
 30
0.0
 11
23.561575
 21
30.400004
 31
0.0
  0
LINE
  5
37e
100
AcDbEntity
  8
0
 62
7
100
AcDbLine
 10
23.561575
 20
30.400004
 30
0.0
 11
24.323145
 21
30.400004
 31
0.0
  0
LINE
  5
37f
100
AcDbEntity
  8
0
 62
7
100
AcDbLine
 10
24.323145
 20
30.400004
 30
0.0
 11
24.323145
 21
31.161573
 31
0.0
  0
LINE
  5
380
100
AcDbEntity
  8
0
 62
7
100
AcDbLine
 10
16.723144
 20
32.676859
 30
0.0
 11
16.723144
 21
33.430581
 31
0.0
  0
LINE
  5
381
100
AcDbEntity
  8
0
 62
7
100
AcDbLine
 10
16.723144
 20
33.430581
 30
0.0
 11
15.961574
 21
33.430581
 31
0.0
  0
LINE
  5
382
100
AcDbEntity
  8
0
 62
7
100
AcDbLine
 10
15.961574
 20
33.430581
 30
0.0
 11
15.200005
 21
33.430581
 31
0.0
  0
LINE
  5
383
100
AcDbEntity
  8
0
 62
7
100
AcDbLine
 10
15.200005
 20
33.430581
 30
0.0
 11
15.200005
 21
32.676859
 31
0.0
  0
LINE
  5
384
100
AcDbEntity
  8
0
 62
7
100
AcDbLine
 10
15.200005
 20
32.676859
 30
0.0
 11
15.200005
 21
31.923146
 31
0.0
  0
LINE
  5
385
100
AcDbEntity
  8
0
 62
7
100
AcDbLine
 10
15.200005
 20
31.923146
 30
0.0
 11
15.961574
 21
31.923146
 31
0.0
  0
LINE
  5
386
100
AcDbEntity
  8
0
 62
7
100
AcDbLine
 10
15.961574
 20
31.923146
 30
0.0
 11
16.723144
 21
31.923146
 31
0.0
  0
LINE
  5
387
100
AcDbEntity
  8
0
 62
7
100
AcDbLine
 10
16.723144
 20
31.923146
 30
0.0
 11
16.723144
 21
32.676859
 31
0.0
  0
LINE
  5
388
100
AcDbEntity
  8
0
 62
7
100
AcDbLine
 10
31.923144
 20
25.076864
 30
0.0
 11
31.923144
 21
25.830580
 31
0.0
  0
LINE
  5
389
100
AcDbEntity
  8
0
 62
7
100
AcDbLine
 10
31.923144
 20
25.830580
 30
0.0
 11
32.676865
 21
25.830580
 31
0.0
  0
LINE
  5
38a
100
AcDbEntity
  8
0
 62
7
100
AcDbLine
 10
32.676865
 20
25.830580
 30
0.0
 11
33.430584
 21
25.830580
 31
0.0
  0
LINE
  5
38b
100
AcDbEntity
  8
0
 62
7
100
AcDbLine
 10
33.430584
 20
25.830580
 30
0.0
 11
33.430584
 21
25.076864
 31
0.0
  0
LINE
  5
38c
100
AcDbEntity
  8
0
 62
7
100
AcDbLine
 10
33.430584
 20
25.076864
 30
0.0
 11
33.430584
 21
24.323145
 31
0.0
  0
LINE
  5
38d
100
AcDbEntity
  8
0
 62
7
100
AcDbLine
 10
33.430584
 20
24.323145
 30
0.0
 11
32.676865
 21
24.323145
 31
0.0
  0
LINE
  5
38e
100
AcDbEntity
  8
0
 62
7
100
AcDbLine
 10
32.676865
 20
24.323145
 30
0.0
 11
31.923144
 21
24.323145
 31
0.0
  0
LINE
  5
38f
100
AcDbEntity
  8
0
 62
7
100
AcDbLine
 10
31.923144
 20
24.323145
 30
0.0
 11
31.923144
 21
25.076864
 31
0.0
  0
LINE
  5
390
100
AcDbEntity
  8
0
 62
7
100
AcDbLine
 10
12.169425
 20
28.876864
 30
0.0
 11
12.169425
 21
30.400004
 31
0.0
  0
LINE
  5
391
100
AcDbEntity
  8
0
 62
7
100
AcDbLine
 10
12.169425
 20
30.400004
 30
0.0
 11
12.923143
 21
30.400004
 31
0.0
  0
LINE
  5
392
100
AcDbEntity
  8
0
 62
7
100
AcDbLine
 10
12.923143
 20
30.400004
 30
0.0
 11
13.676865
 21
30.400004
 31
0.0
  0
LINE
  5
393
100
AcDbEntity
  8
0
 62
7
100
AcDbLine
 10
13.676865
 20
30.400004
 30
0.0
 11
13.676865
 21
28.876864
 31
0.0
  0
LINE
  5
394
100
AcDbEntity
  8
0
 62
7
100
AcDbLine
 10
13.676865
 20
28.876864
 30
0.0
 11
13.676865
 21
27.353719
 31
0.0
  0
LINE
  5
395
100
AcDbEntity
  8
0
 62
7
100
AcDbLine
 10
13.676865
 20
27.353719
 30
0.0
 11
12.923143
 21
27.353719
 31
0.0
  0
LINE
  5
396
100
AcDbEntity
  8
0
 62
7
100
AcDbLine
 10
12.923143
 20
27.353719
 30
0.0
 11
12.169425
 21
27.353719
 31
0.0
  0
LINE
  5
397
100
AcDbEntity
  8
0
 62
7
100
AcDbLine
 10
12.169425
 20
27.353719
 30
0.0
 11
12.169425
 21
28.876864
 31
0.0
  0
LINE
  5
398
100
AcDbEntity
  8
0
 62
7
100
AcDbLine
 10
0.015704
 20
32.684715
 30
0.0
 11
0.015704
 21
38.000005
 31
0.0
  0
LINE
  5
399
100
AcDbEntity
  8
0
 62
7
100
AcDbLine
 10
0.015704
 20
38.000005
 30
0.0
 11
5.323145
 21
38.000005
 31
0.0
  0
LINE
  5
39a
100
AcDbEntity
  8
0
 62
7
100
AcDbLine
 10
5.323145
 20
38.000005
 30
0.0
 11
10.630581
 21
38.000005
 31
0.0
  0
LINE
  5
39b
100
AcDbEntity
  8
0
 62
7
100
AcDbLine
 10
10.630581
 20
38.000005
 30
0.0
 11
10.630581
 21
32.684715
 31
0.0
  0
LINE
  5
39c
100
AcDbEntity
  8
0
 62
7
100
AcDbLine
 10
10.630581
 20
32.684715
 30
0.0
 11
10.630581
 21
27.369424
 31
0.0
  0
LINE
  5
39d
100
AcDbEntity
  8
0
 62
7
100
AcDbLine
 10
10.630581
 20
27.369424
 30
0.0
 11
5.323145
 21
27.369424
 31
0.0
  0
LINE
  5
39e
100
AcDbEntity
  8
0
 62
7
100
AcDbLine
 10
5.323145
 20
27.369424
 30
0.0
 11
0.015704
 21
27.369424
 31
0.0
  0
LINE
  5
39f
100
AcDbEntity
  8
0
 62
7
100
AcDbLine
 10
0.015704
 20
27.369424
 30
0.0
 11
0.015704
 21
32.684715
 31
0.0
  0
LINE
  5
3a0
100
AcDbEntity
  8
0
 62
7
100
AcDbLine
 10
9.123146
 20
32.684715
 30
0.0
 11
9.123146
 21
36.476865
 31
0.0
  0
LINE
  5
3a1
100
AcDbEntity
  8
0
 62
7
100
AcDbLine
 10
9.123146
 20
36.476865
 30
0.0
 11
5.330993
 21
36.476865
 31
0.0
  0
LINE
  5
3a2
100
AcDbEntity
  8
0
 62
7
100
AcDbLine
 10
5.330993
 20
36.476865
 30
0.0
 11
1.538843
 21
36.476865
 31
0.0
  0
LINE
  5
3a3
100
AcDbEntity
  8
0
 62
7
100
AcDbLine
 10
1.538843
 20
36.476865
 30
0.0
 11
1.538843
 21
32.684715
 31
0.0
  0
LINE
  5
3a4
100
AcDbEntity
  8
0
 62
7
100
AcDbLine
 10
1.538843
 20
32.684715
 30
0.0
 11
1.538843
 21
28.892566
 31
0.0
  0
LINE
  5
3a5
100
AcDbEntity
  8
0
 62
7
100
AcDbLine
 10
1.538843
 20
28.892566
 30
0.0
 11
5.330993
 21
28.892566
 31
0.0
  0
LINE
  5
3a6
100
AcDbEntity
  8
0
 62
7
100
AcDbLine
 10
5.330993
 20
28.892566
 30
0.0
 11
9.123146
 21
28.892566
 31
0.0
  0
LINE
  5
3a7
100
AcDbEntity
  8
0
 62
7
100
AcDbLine
 10
9.123146
 20
28.892566
 30
0.0
 11
9.123146
 21
32.684715
 31
0.0
  0
LINE
  5
3a8
100
AcDbEntity
  8
0
 62
7
100
AcDbLine
 10
3.030580
 20
32.684715
 30
0.0
 11
3.030580
 21
34.969425
 31
0.0
  0
LINE
  5
3a9
100
AcDbEntity
  8
0
 62
7
100
AcDbLine
 10
3.030580
 20
34.969425
 30
0.0
 11
5.315289
 21
34.969425
 31
0.0
  0
LINE
  5
3aa
100
AcDbEntity
  8
0
 62
7
100
AcDbLine
 10
5.315289
 20
34.969425
 30
0.0
 11
7.600004
 21
34.969425
 31
0.0
  0
LINE
  5
3ab
100
AcDbEntity
  8
0
 62
7
100
AcDbLine
 10
7.600004
 20
34.969425
 30
0.0
 11
7.600004
 21
32.684715
 31
0.0
  0
LINE
  5
3ac
100
AcDbEntity
  8
0
 62
7
100
AcDbLine
 10
7.600004
 20
32.684715
 30
0.0
 11
7.600004
 21
30.400004
 31
0.0
  0
LINE
  5
3ad
100
AcDbEntity
  8
0
 62
7
100
AcDbLine
 10
7.600004
 20
30.400004
 30
0.0
 11
5.315289
 21
30.400004
 31
0.0
  0
LINE
  5
3ae
100
AcDbEntity
  8
0
 62
7
100
AcDbLine
 10
5.315289
 20
30.400004
 30
0.0
 11
3.030580
 21
30.400004
 31
0.0
  0
LINE
  5
3af
100
AcDbEntity
  8
0
 62
7
100
AcDbLine
 10
3.030580
 20
30.400004
 30
0.0
 11
3.030580
 21
32.684715
 31
0.0
  0
LINE
  5
3b0
100
AcDbEntity
  8
0
 62
7
100
AcDbLine
 10
27.369424
 20
32.684715
 30
0.0
 11
27.369424
 21
38.000005
 31
0.0
  0
LINE
  5
3b1
100
AcDbEntity
  8
0
 62
7
100
AcDbLine
 10
27.369424
 20
38.000005
 30
0.0
 11
32.676865
 21
38.000005
 31
0.0
  0
LINE
  5
3b2
100
AcDbEntity
  8
0
 62
7
100
AcDbLine
 10
32.676865
 20
38.000005
 30
0.0
 11
37.984301
 21
38.000005
 31
0.0
  0
LINE
  5
3b3
100
AcDbEntity
  8
0
 62
7
100
AcDbLine
 10
37.984301
 20
38.000005
 30
0.0
 11
37.984301
 21
32.684715
 31
0.0
  0
LINE
  5
3b4
100
AcDbEntity
  8
0
 62
7
100
AcDbLine
 10
37.984301
 20
32.684715
 30
0.0
 11
37.984301
 21
27.369424
 31
0.0
  0
LINE
  5
3b5
100
AcDbEntity
  8
0
 62
7
100
AcDbLine
 10
37.984301
 20
27.369424
 30
0.0
 11
32.676865
 21
27.369424
 31
0.0
  0
LINE
  5
3b6
100
AcDbEntity
  8
0
 62
7
100
AcDbLine
 10
32.676865
 20
27.369424
 30
0.0
 11
27.369424
 21
27.369424
 31
0.0
  0
LINE
  5
3b7
100
AcDbEntity
  8
0
 62
7
100
AcDbLine
 10
27.369424
 20
27.369424
 30
0.0
 11
27.369424
 21
32.684715
 31
0.0
  0
LINE
  5
3b8
100
AcDbEntity
  8
0
 62
7
100
AcDbLine
 10
36.476861
 20
32.684715
 30
0.0
 11
36.476861
 21
36.476865
 31
0.0
  0
LINE
  5
3b9
100
AcDbEntity
  8
0
 62
7
100
AcDbLine
 10
36.476861
 20
36.476865
 30
0.0
 11
32.684715
 21
36.476865
 31
0.0
  0
LINE
  5
3ba
100
AcDbEntity
  8
0
 62
7
100
AcDbLine
 10
32.684715
 20
36.476865
 30
0.0
 11
28.892567
 21
36.476865
 31
0.0
  0
LINE
  5
3bb
100
AcDbEntity
  8
0
 62
7
100
AcDbLine
 10
28.892567
 20
36.476865
 30
0.0
 11
28.892567
 21
32.684715
 31
0.0
  0
LINE
  5
3bc
100
AcDbEntity
  8
0
 62
7
100
AcDbLine
 10
28.892567
 20
32.684715
 30
0.0
 11
28.892567
 21
28.892566
 31
0.0
  0
LINE
  5
3bd
100
AcDbEntity
  8
0
 62
7
100
AcDbLine
 10
28.892567
 20
28.892566
 30
0.0
 11
32.684715
 21
28.892566
 31
0.0
  0
LINE
  5
3be
100
AcDbEntity
  8
0
 62
7
100
AcDbLine
 10
32.684715
 20
28.892566
 30
0.0
 11
36.476861
 21
28.892566
 31
0.0
  0
LINE
  5
3bf
100
AcDbEntity
  8
0
 62
7
100
AcDbLine
 10
36.476861
 20
28.892566
 30
0.0
 11
36.476861
 21
32.684715
 31
0.0
  0
LINE
  5
3c0
100
AcDbEntity
  8
0
 62
7
100
AcDbLine
 10
30.384303
 20
32.684715
 30
0.0
 11
30.384303
 21
34.969425
 31
0.0
  0
LINE
  5
3c1
100
AcDbEntity
  8
0
 62
7
100
AcDbLine
 10
30.384303
 20
34.969425
 30
0.0
 11
32.669015
 21
34.969425
 31
0.0
  0
LINE
  5
3c2
100
AcDbEntity
  8
0
 62
7
100
AcDbLine
 10
32.669015
 20
34.969425
 30
0.0
 11
34.953724
 21
34.969425
 31
0.0
  0
LINE
  5
3c3
100
AcDbEntity
  8
0
 62
7
100
AcDbLine
 10
34.953724
 20
34.969425
 30
0.0
 11
34.953724
 21
32.684715
 31
0.0
  0
LINE
  5
3c4
100
AcDbEntity
  8
0
 62
7
100
AcDbLine
 10
34.953724
 20
32.684715
 30
0.0
 11
34.953724
 21
30.400004
 31
0.0
  0
LINE
  5
3c5
100
AcDbEntity
  8
0
 62
7
100
AcDbLine
 10
34.953724
 20
30.400004
 30
0.0
 11
32.669015
 21
30.400004
 31
0.0
  0
LINE
  5
3c6
100
AcDbEntity
  8
0
 62
7
100
AcDbLine
 10
32.669015
 20
30.400004
 30
0.0
 11
30.384303
 21
30.400004
 31
0.0
  0
LINE
  5
3c7
100
AcDbEntity
  8
0
 62
7
100
AcDbLine
 10
30.384303
 20
30.400004
 30
0.0
 11
30.384303
 21
32.684715
 31
0.0
  0
LINE
  5
3c8
100
AcDbEntity
  8
0
 62
7
100
AcDbLine
 10
22.800003
 20
35.715290
 30
0.0
 11
22.800003
 21
36.476865
 31
0.0
  0
LINE
  5
3c9
100
AcDbEntity
  8
0
 62
7
100
AcDbLine
 10
22.800003
 20
36.476865
 30
0.0
 11
23.561575
 21
36.476865
 31
0.0
  0
LINE
  5
3ca
100
AcDbEntity
  8
0
 62
7
100
AcDbLine
 10
23.561575
 20
36.476865
 30
0.0
 11
24.323145
 21
36.476865
 31
0.0
  0
LINE
  5
3cb
100
AcDbEntity
  8
0
 62
7
100
AcDbLine
 10
24.323145
 20
36.476865
 30
0.0
 11
24.323145
 21
37.238435
 31
0.0
  0
LINE
  5
3cc
100
AcDbEntity
  8
0
 62
7
100
AcDbLine
 10
24.323145
 20
37.238435
 30
0.0
 11
24.323145
 21
38.000005
 31
0.0
  0
LINE
  5
3cd
100
AcDbEntity
  8
0
 62
7
100
AcDbLine
 10
24.323145
 20
38.000005
 30
0.0
 11
25.076864
 21
38.000005
 31
0.0
  0
LINE
  5
3ce
100
AcDbEntity
  8
0
 62
7
100
AcDbLine
 10
25.076864
 20
38.000005
 30
0.0
 11
25.830583
 21
38.000005
 31
0.0
  0
LINE
  5
3cf
100
AcDbEntity
  8
0
 62
7
100
AcDbLine
 10
25.830583
 20
38.000005
 30
0.0
 11
25.830583
 21
37.238435
 31
0.0
  0
LINE
  5
3d0
100
AcDbEntity
  8
0
 62
7
100
AcDbLine
 10
25.830583
 20
37.238435
 30
0.0
 11
25.830583
 21
36.476865
 31
0.0
  0
LINE
  5
3d1
100
AcDbEntity
  8
0
 62
7
100
AcDbLine
 10
25.830583
 20
36.476865
 30
0.0
 11
25.076864
 21
36.476865
 31
0.0
  0
LINE
  5
3d2
100
AcDbEntity
  8
0
 62
7
100
AcDbLine
 10
25.076864
 20
36.476865
 30
0.0
 11
24.323145
 21
36.476865
 31
0.0
  0
LINE
  5
3d3
100
AcDbEntity
  8
0
 62
7
100
AcDbLine
 10
24.323145
 20
36.476865
 30
0.0
 11
24.323145
 21
35.715290
 31
0.0
  0
LINE
  5
3d4
100
AcDbEntity
  8
0
 62
7
100
AcDbLine
 10
24.323145
 20
35.715290
 30
0.0
 11
24.323145
 21
34.953720
 31
0.0
  0
LINE
  5
3d5
100
AcDbEntity
  8
0
 62
7
100
AcDbLine
 10
24.323145
 20
34.953720
 30
0.0
 11
23.561575
 21
34.953720
 31
0.0
  0
LINE
  5
3d6
100
AcDbEntity
  8
0
 62
7
100
AcDbLine
 10
23.561575
 20
34.953720
 30
0.0
 11
22.800003
 21
34.953720
 31
0.0
  0
LINE
  5
3d7
100
AcDbEntity
  8
0
 62
7
100
AcDbLine
 10
22.800003
 20
34.953720
 30
0.0
 11
22.800003
 21
35.715290
 31
0.0
  0
ENDSEC
  0
SECTION
  2
OBJECTS
  0
DICTIONARY
  5
C
330
0
100
AcDbDictionary
  3
ACAD_GROUP
350
D
  3
ACAD_MLINESTYLE
350
17
  0
DICTIONARY
  5
D
330
C
100
AcDbDictionary
  0
DICTIONARY
  5
1A
330
C
100
AcDbDictionary
  0
DICTIONARY
  5
17
330
C
100
AcDbDictionary
  3
STANDARD
350
18
  0
DICTIONARY
  5
19
330
C
100
AcDbDictionary
  0
ENDSEC
  0
EOF
